<svg width="20" height="17" viewBox="0 0 20 17" fill="none" xmlns="http://www.w3.org/2000/svg">
<path d="M17.8125 17C18.0036 17.001 18.1926 16.9606 18.3656 16.8817C18.5932 16.7802 18.7859 16.6173 18.9206 16.4123C19.0552 16.2073 19.1262 15.969 19.125 15.7259V1.27409C19.125 0.936179 18.9867 0.61211 18.7406 0.373172C18.4944 0.134234 18.1606 0 17.8125 0H1.3125C0.964401 0 0.630564 0.134234 0.384422 0.373172C0.138281 0.61211 0 0.936179 0 1.27409V12.9229C0 13.2608 0.138281 13.5849 0.384422 13.8238C0.630564 14.0628 0.964401 14.197 1.3125 14.197H13.8281C13.8729 14.1983 13.9159 14.2143 13.95 14.2425L16.9687 16.6997C17.2044 16.8937 17.5034 17.0002 17.8125 17ZM17.8125 1.09208C17.8622 1.09208 17.9099 1.11125 17.9451 1.14539C17.9802 1.17952 18 1.22582 18 1.27409V15.7259C17.998 15.7599 17.9866 15.7927 17.9672 15.821C17.9477 15.8493 17.9209 15.872 17.8893 15.8869C17.8578 15.9017 17.8228 15.9081 17.7878 15.9054C17.7529 15.9027 17.7193 15.891 17.6906 15.8715L14.6719 13.4052C14.4354 13.2125 14.1369 13.1063 13.8281 13.1049H1.3125C1.26277 13.1049 1.21508 13.0857 1.17992 13.0516C1.14475 13.0175 1.125 12.9712 1.125 12.9229V1.27409C1.125 1.22582 1.14475 1.17952 1.17992 1.14539C1.21508 1.11125 1.26277 1.09208 1.3125 1.09208H17.8125Z" fill="black"/>
<circle cx="1.0625" cy="1.0625" r="1.0625" transform="matrix(-1 0 0 1 9.9165 6.375)" fill="black"/>
<circle cx="1.0625" cy="1.0625" r="1.0625" transform="matrix(-1 0 0 1 13.458 6.375)" fill="black"/>
<circle cx="1.0625" cy="1.0625" r="1.0625" transform="matrix(-1 0 0 1 6.375 6.375)" fill="black"/>
</svg>
