<svg width="17" height="13" viewBox="0 0 17 13" fill="none" xmlns="http://www.w3.org/2000/svg">
<path fill-rule="evenodd" clip-rule="evenodd" d="M9.68433 3.65625H1.5C1.13756 3.65625 0.84375 3.36244 0.84375 3C0.84375 2.63756 1.13756 2.34375 1.5 2.34375H9.68433C9.96998 1.33378 10.8986 0.59375 12 0.59375C13.1014 0.59375 14.03 1.33378 14.3157 2.34375H15.5C15.8624 2.34375 16.1562 2.63756 16.1562 3C16.1562 3.36244 15.8624 3.65625 15.5 3.65625H14.3157C14.03 4.66622 13.1014 5.40625 12 5.40625C10.8986 5.40625 9.96998 4.66622 9.68433 3.65625ZM10.9062 3C10.9062 2.39594 11.3959 1.90625 12 1.90625C12.6041 1.90625 13.0938 2.39594 13.0938 3C13.0938 3.60406 12.6041 4.09375 12 4.09375C11.3959 4.09375 10.9062 3.60406 10.9062 3Z" fill="black"/>
<path fill-rule="evenodd" clip-rule="evenodd" d="M7.31567 10.6562H15.5C15.8624 10.6562 16.1562 10.3624 16.1562 10C16.1562 9.63756 15.8624 9.34375 15.5 9.34375H7.31567C7.03002 8.33378 6.10143 7.59375 5 7.59375C3.89857 7.59375 2.96998 8.33378 2.68433 9.34375H1.5C1.13756 9.34375 0.84375 9.63756 0.84375 10C0.84375 10.3624 1.13756 10.6562 1.5 10.6562H2.68433C2.96998 11.6662 3.89857 12.4062 5 12.4062C6.10143 12.4062 7.03002 11.6662 7.31567 10.6562ZM3.90625 10C3.90625 9.39594 4.39594 8.90625 5 8.90625C5.60406 8.90625 6.09375 9.39594 6.09375 10C6.09375 10.6041 5.60406 11.0938 5 11.0938C4.39594 11.0938 3.90625 10.6041 3.90625 10Z" fill="black"/>
</svg>
