<svg width="21" height="22" viewBox="0 0 21 22" fill="none" xmlns="http://www.w3.org/2000/svg">
<path fill-rule="evenodd" clip-rule="evenodd" d="M11.072 10.3297C11.5283 10.7698 11.5415 11.4965 11.1014 11.9528C8.3387 14.8174 3.77686 14.8999 0.91228 12.1372C0.455981 11.6971 0.442827 10.9705 0.882901 10.5142C1.32298 10.0579 2.04963 10.0447 2.50593 10.4848C4.45791 12.3674 7.56644 12.3111 9.44901 10.3591C9.88909 9.90282 10.6157 9.88967 11.072 10.3297Z" fill="#9FC743"/>
<path fill-rule="evenodd" clip-rule="evenodd" d="M19.7366 10.3307C20.1929 10.7708 20.206 11.4974 19.766 11.9537C17.0032 14.8183 12.4414 14.9009 9.57683 12.1382C9.12053 11.6981 9.10738 10.9715 9.54745 10.5152C9.98753 10.0589 10.7142 10.0457 11.1705 10.4858C13.1225 12.3684 16.231 12.3121 18.1136 10.3601C18.5536 9.9038 19.2803 9.89065 19.7366 10.3307Z" fill="#9FC743"/>
</svg>
