<svg width="58" height="51" viewBox="0 0 58 51" fill="none" xmlns="http://www.w3.org/2000/svg">
<g clip-path="url(#clip0_1547_6587)">
<path d="M3 41.5097V3.2C3 3.08954 3.08954 3 3.2 3H53.8C53.9105 3 54 3.08954 54 3.2V50.5849C54 50.7524 53.8064 50.8457 53.6754 50.7413L42.3976 41.7533C42.3621 41.725 42.3182 41.7097 42.2729 41.7097H3.2C3.08954 41.7097 3 41.6201 3 41.5097Z" fill="#E9E9E9"/>
<path d="M53.4375 50.9999C54.0109 51.003 54.5778 50.8817 55.0968 50.645C55.7796 50.3407 56.3577 49.8518 56.7617 49.2369C57.1657 48.622 57.3786 47.907 57.375 47.1777V3.82227C57.375 2.80854 56.9601 1.83633 56.2217 1.11952C55.4833 0.402702 54.4817 0 53.4375 0H3.9375C2.89321 0 1.89169 0.402702 1.15327 1.11952C0.414844 1.83633 0 2.80854 0 3.82227V38.7687C0 39.7824 0.414844 40.7546 1.15327 41.4714C1.89169 42.1883 2.89321 42.591 3.9375 42.591H41.4843C41.6187 42.5948 41.7476 42.6429 41.85 42.7275L50.9062 50.099C51.6132 50.6812 52.5103 51.0005 53.4375 50.9999ZM53.4375 3.27623C53.5866 3.27623 53.7297 3.33376 53.8352 3.43616C53.9407 3.53856 54 3.67745 54 3.82227V47.1777C53.9939 47.2796 53.9599 47.378 53.9016 47.4629C53.8432 47.5478 53.7626 47.616 53.668 47.6606C53.5734 47.7051 53.4683 47.7243 53.3635 47.7162C53.2587 47.7081 53.158 47.673 53.0718 47.6145L44.0156 40.2157C43.3061 39.6376 42.4106 39.3189 41.4843 39.3147H3.9375C3.78831 39.3147 3.64524 39.2572 3.53975 39.1548C3.43426 39.0524 3.375 38.9135 3.375 38.7687V3.82227C3.375 3.67745 3.43426 3.53856 3.53975 3.43616C3.64524 3.33376 3.78831 3.27623 3.9375 3.27623H53.4375Z" fill="#E9E9E9"/>
<path d="M28.2897 26C27.8687 26 27.5136 25.8583 27.2245 25.575C26.9347 25.2917 26.8073 24.9583 26.8424 24.575C26.895 23.875 27.0705 23.2667 27.3687 22.75C27.6669 22.2333 28.1406 21.7 28.7897 21.15C29.509 20.55 30.057 20.029 30.4338 19.587C30.8114 19.1457 31.0001 18.6417 31.0001 18.075C31.0001 17.3917 30.7591 16.825 30.277 16.375C29.7942 15.925 29.123 15.7 28.2634 15.7C27.702 15.7 27.2241 15.8123 26.8298 16.037C26.4347 16.2623 26.1144 16.5417 25.8688 16.875C25.6232 17.2083 25.3207 17.4333 24.9614 17.55C24.6014 17.6667 24.2548 17.6583 23.9215 17.525C23.518 17.3583 23.2419 17.0833 23.0931 16.7C22.9436 16.3167 22.9741 15.9583 23.1847 15.625C23.6934 14.875 24.3776 14.25 25.2372 13.75C26.0968 13.25 27.1056 13 28.2634 13C30.1054 13 31.5222 13.4877 32.5137 14.463C33.5046 15.4377 34 16.6083 34 17.975C34 18.8083 33.8116 19.521 33.4348 20.113C33.0572 20.7043 32.465 21.375 31.658 22.125C31.0615 22.6583 30.6405 23.0917 30.3949 23.425C30.1493 23.7583 29.9826 24.1417 29.8949 24.575C29.8247 24.9917 29.6405 25.3333 29.3423 25.6C29.0441 25.8667 28.6932 26 28.2897 26ZM28.2634 32C27.6845 32 27.1891 31.8043 26.7771 31.413C26.3645 31.021 26.1582 30.55 26.1582 30C26.1582 29.45 26.3645 28.979 26.7771 28.587C27.1891 28.1957 27.6845 28 28.2634 28C28.8423 28 29.3381 28.1957 29.7507 28.587C30.1626 28.979 30.3686 29.45 30.3686 30C30.3686 30.55 30.1626 31.021 29.7507 31.413C29.3381 31.8043 28.8423 32 28.2634 32Z" fill="white"/>
</g>
<defs>
<clipPath id="clip0_1547_6587">
<rect width="58" height="51" fill="white"/>
</clipPath>
</defs>
</svg>
