<svg width="24" height="24" viewBox="0 0 24 24" fill="none" xmlns="http://www.w3.org/2000/svg">
<path d="M16.0658 8.99469C16.3586 8.70179 16.3586 8.22692 16.0658 7.93403C15.7729 7.64113 15.298 7.64113 15.0051 7.93403L11.9999 10.9392L8.99469 7.93403C8.7018 7.64113 8.22693 7.64113 7.93403 7.93403C7.64114 8.22692 7.64114 8.70179 7.93403 8.99469L10.9392 11.9999L7.93403 15.0051C7.64113 15.298 7.64113 15.7729 7.93403 16.0658C8.22692 16.3586 8.70179 16.3586 8.99469 16.0658L11.9999 13.0605L15.0051 16.0658C15.298 16.3586 15.7729 16.3586 16.0658 16.0658C16.3587 15.7729 16.3587 15.298 16.0658 15.0051L13.0606 11.9999L16.0658 8.99469Z" fill="currentColor"/>
</svg>
