<svg width="22" height="22" viewBox="0 0 22 22" fill="none" xmlns="http://www.w3.org/2000/svg">
<path d="M10.5 17C14.0899 17 17 14.0899 17 10.5C17 6.91015 14.0899 4 10.5 4C6.91015 4 4 6.91015 4 10.5C4 14.0899 6.91015 17 10.5 17Z" fill="#878787"/>
<path fill-rule="evenodd" clip-rule="evenodd" d="M12.3193 12.8832C12.475 13.0389 12.7275 13.0389 12.8832 12.8832C13.0389 12.7275 13.0389 12.475 12.8832 12.3193L11.0639 10.5L12.8832 8.68071C13.0389 8.52499 13.0389 8.27251 12.8832 8.11679C12.7275 7.96107 12.475 7.96107 12.3193 8.11679L10.5 9.93608L8.68071 8.11679C8.52499 7.96107 8.27251 7.96107 8.11679 8.11679C7.96107 8.27251 7.96107 8.52499 8.11679 8.68071L9.93608 10.5L8.11679 12.3193C7.96107 12.475 7.96107 12.7275 8.11679 12.8832C8.27251 13.0389 8.52499 13.0389 8.68071 12.8832L10.5 11.0639L12.3193 12.8832Z" fill="white"/>
</svg>
