<svg width="133" height="38" viewBox="0 0 133 38" fill="none" xmlns="http://www.w3.org/2000/svg">
<path d="M1.65578 29.3901C1.18664 29.3901 0.786495 29.2521 0.455339 28.9761C0.15178 28.6726 0 28.2862 0 27.8171V1.73857C0 1.21424 0.15178 0.800294 0.455339 0.496735C0.758899 0.165578 1.17284 0 1.69717 0C2.2215 0 2.63545 0.165578 2.93901 0.496735C3.24257 0.800294 3.39435 1.21424 3.39435 1.73857V26.4925H16.7648C17.2615 26.4925 17.6479 26.6167 17.9238 26.865C18.1998 27.1134 18.3378 27.4721 18.3378 27.9413C18.3378 28.4104 18.1998 28.7692 17.9238 29.0175C17.6479 29.2659 17.2615 29.3901 16.7648 29.3901H1.65578Z" fill="black"/>
<path d="M23.5551 29.5971C23.0583 29.5971 22.6444 29.4591 22.3132 29.1831C22.0097 28.8795 21.8579 28.4656 21.8579 27.9413V10.4728C21.8579 9.94847 22.0097 9.54833 22.3132 9.27236C22.6444 8.9688 23.0583 8.81703 23.5551 8.81703C24.0518 8.81703 24.452 8.9688 24.7555 9.27236C25.0591 9.54833 25.2109 9.94847 25.2109 10.4728V27.9413C25.2109 28.4932 25.0591 28.9071 24.7555 29.1831C24.452 29.4591 24.0518 29.5971 23.5551 29.5971ZM23.5551 4.4706C22.8928 4.4706 22.3546 4.27743 21.9407 3.89108C21.5268 3.50473 21.3198 2.9942 21.3198 2.35948C21.3198 1.75237 21.5268 1.25563 21.9407 0.869285C22.3546 0.482937 22.8928 0.289763 23.5551 0.289763C24.2174 0.289763 24.7555 0.482937 25.1695 0.869285C25.5834 1.25563 25.7904 1.75237 25.7904 2.35948C25.7904 2.9942 25.5834 3.50473 25.1695 3.89108C24.7555 4.27743 24.2174 4.4706 23.5551 4.4706Z" fill="black"/>
<path d="M41.6205 8.73424C46.4499 8.73424 48.8646 11.3973 48.8646 16.7234V27.9413C48.8646 28.4656 48.7128 28.8795 48.4092 29.1831C48.1333 29.4591 47.7331 29.5971 47.2088 29.5971C46.6845 29.5971 46.2705 29.4591 45.967 29.1831C45.6634 28.8795 45.5116 28.4656 45.5116 27.9413V16.9303C45.5116 15.0538 45.1391 13.6878 44.394 12.8323C43.6765 11.9768 42.5174 11.5491 40.9168 11.5491C39.0679 11.5491 37.5915 12.1148 36.4876 13.2462C35.3838 14.3777 34.8318 15.9093 34.8318 17.841V27.9413C34.8318 28.4656 34.6801 28.8795 34.3765 29.1831C34.1005 29.4591 33.7004 29.5971 33.1761 29.5971C32.6517 29.5971 32.2378 29.4591 31.9342 29.1831C31.6307 28.8795 31.4789 28.4656 31.4789 27.9413V10.4728C31.4789 9.97607 31.6307 9.57592 31.9342 9.27236C32.2378 8.9688 32.6517 8.81703 33.1761 8.81703C33.6728 8.81703 34.0591 8.9688 34.3351 9.27236C34.6387 9.57592 34.7904 9.96227 34.7904 10.4314V12.5425C35.4528 11.3007 36.3772 10.3624 37.5639 9.7277C38.7505 9.06539 40.1027 8.73424 41.6205 8.73424Z" fill="black"/>
<path d="M71.1083 26.7408C71.5498 27.1548 71.7706 27.5963 71.7706 28.0655C71.7706 28.4794 71.6188 28.8382 71.3153 29.1417C71.0393 29.4453 70.6943 29.5971 70.2804 29.5971C69.9216 29.5971 69.5491 29.4315 69.1627 29.1003L58.3588 19.7866V27.9413C58.3588 28.4656 58.1932 28.8795 57.8621 29.1831C57.5585 29.4591 57.1721 29.5971 56.703 29.5971C56.2063 29.5971 55.7923 29.4591 55.4612 29.1831C55.1576 28.8795 55.0058 28.4656 55.0058 27.9413V1.65578C55.0058 1.13145 55.1576 0.731303 55.4612 0.455338C55.7923 0.151779 56.2063 0 56.703 0C57.1721 0 57.5585 0.151779 57.8621 0.455338C58.1932 0.731303 58.3588 1.13145 58.3588 1.65578V18.4619L68.2521 9.39655C68.5832 9.06539 68.9558 8.89981 69.3697 8.89981C69.7837 8.89981 70.1424 9.05159 70.446 9.35515C70.7495 9.65871 70.9013 10.0175 70.9013 10.4314C70.9013 10.9005 70.7081 11.3145 70.3218 11.6732L62.1671 18.9587L71.1083 26.7408Z" fill="black"/>
<path d="M89.8283 9.85189C90.1319 9.18958 90.6148 8.85842 91.2771 8.85842C91.691 8.85842 92.0636 8.9964 92.3948 9.27236C92.7259 9.54833 92.8915 9.89328 92.8915 10.3072C92.8915 10.5556 92.8363 10.7764 92.7259 10.9695L81.0941 36.0546C80.9561 36.3582 80.7491 36.5927 80.4731 36.7583C80.2248 36.9239 79.9626 37.0067 79.6866 37.0067C79.2727 37.0067 78.9001 36.8687 78.569 36.5927C78.2654 36.3444 78.1137 36.0132 78.1137 35.5993C78.1137 35.3785 78.1688 35.1577 78.2792 34.9369L81.1768 28.6864L72.9807 10.9695C72.8704 10.7764 72.8152 10.5694 72.8152 10.3486C72.8152 9.93468 72.9945 9.57592 73.3533 9.27236C73.7396 8.9688 74.1536 8.81703 74.5951 8.81703C74.8711 8.81703 75.1333 8.89981 75.3816 9.06539C75.6576 9.23097 75.8645 9.46554 76.0025 9.7691L82.9154 25.292L89.8283 9.85189Z" fill="black"/>
<path d="M97.0733 15.9368C96.5766 15.9368 96.1902 15.8126 95.9143 15.5642C95.6659 15.3159 95.5417 14.9847 95.5417 14.5708C95.5417 14.1568 95.6659 13.8257 95.9143 13.5773C96.1902 13.3013 96.5766 13.1633 97.0733 13.1633H106.18C106.704 13.1633 107.091 13.3013 107.339 13.5773C107.615 13.8257 107.753 14.1568 107.753 14.5708C107.753 14.9847 107.615 15.3159 107.339 15.5642C107.091 15.8126 106.704 15.9368 106.18 15.9368H97.0733Z" fill="black"/>
<path d="M127.701 14.4053C129.385 14.8468 130.682 15.6747 131.593 16.889C132.531 18.1032 133 19.621 133 21.4423C133 24.0088 132.158 25.9819 130.475 27.3618C128.792 28.714 126.404 29.3901 123.314 29.3901H112.882C112.358 29.3901 111.93 29.2383 111.599 28.9347C111.295 28.6312 111.144 28.231 111.144 27.7343V1.86275C111.144 1.36602 111.295 0.965872 111.599 0.662313C111.93 0.358752 112.358 0.206972 112.882 0.206972H122.858C125.866 0.206972 128.198 0.869284 129.854 2.19391C131.51 3.51853 132.338 5.39508 132.338 7.82356C132.338 9.39655 131.924 10.7488 131.096 11.8802C130.296 13.0117 129.164 13.8534 127.701 14.4053ZM114.497 13.1634H122.362C124.542 13.1634 126.184 12.7219 127.288 11.8388C128.419 10.9557 128.985 9.67251 128.985 7.98914C128.985 4.67758 126.777 3.0218 122.362 3.0218H114.497V13.1634ZM122.983 26.5753C125.273 26.5753 126.956 26.1613 128.033 25.3334C129.136 24.4779 129.688 23.1533 129.688 21.3596C129.688 17.772 127.453 15.9783 122.983 15.9783H114.497V26.5753H122.983Z" fill="black"/>
</svg>
