<svg width="50" height="50" viewBox="0 0 50 50" fill="none" xmlns="http://www.w3.org/2000/svg">
<g clip-path="url(#clip0_1984_4348)">
<path d="M25.4834 49.2539C39.0144 49.2539 49.9834 38.2849 49.9834 24.7539C49.9834 11.2229 39.0144 0.253906 25.4834 0.253906C11.9524 0.253906 0.983398 11.2229 0.983398 24.7539C0.983398 38.2849 11.9524 49.2539 25.4834 49.2539Z" fill="#C1CB61"/>
<path d="M32.0253 35.4422C32.2301 34.5145 36.4332 30.2852 38.1536 27.5717C40.8845 23.2597 39.6781 15.999 39.6781 15.999L34.3425 16.8484L32.9269 30.503L32.021 35.4466L32.0253 35.4422Z" fill="#1E1E1E"/>
<path d="M21.0015 12.9159C19.843 12.807 18.6931 13.199 17.822 13.9743C15.6703 15.8951 11.9158 19.9414 12.4908 24.3318C13.3445 30.8215 12.8131 31.6883 14.6598 34.7459C15.7662 36.5752 18.5232 37.6728 20.3526 38.0169C23.3884 38.5919 30.8756 35.0247 32.0254 34.2319C33.1405 33.4567 40.6059 14.7321 21.0015 12.9159Z" fill="white"/>
<path d="M21.1538 36.4485C21.2496 37.6681 21.1451 40.5994 18.3401 42.7989C17.9307 43.1212 18.1833 43.731 18.7191 43.731H28.9459C29.2682 43.731 29.5296 43.4914 29.5296 43.1996V36.4093C29.5296 36.1131 29.2682 35.8779 28.9459 35.8779H21.7375C21.3977 35.8779 21.132 36.1393 21.1582 36.4485H21.1538Z" fill="white"/>
<path d="M32.2304 33.3037H26.3809V37.5809H32.2304V33.3037Z" fill="white"/>
<path d="M24.2853 36.4485C24.3767 37.6681 24.2766 40.5994 21.6153 42.7989C21.2277 43.1212 21.4629 43.731 21.9768 43.731H31.681C31.9859 43.731 32.2342 43.4914 32.2342 43.1996V36.4093C32.2342 36.1131 31.9859 35.8779 31.681 35.8779H24.8384C24.5161 35.8779 24.2635 36.1393 24.2896 36.4485H24.2853Z" fill="white"/>
<path d="M12.6125 24.9024C12.6125 24.9024 8.21339 14.6233 14.0585 11.0996C14.0585 11.0996 15.6919 16.5484 14.8687 18.6391C14.8687 18.6391 11.9984 21.0346 12.6169 24.9024H12.6125Z" fill="#1E1E1E"/>
<path d="M29.5295 26.2609C19.0674 24.902 17.016 15.9208 17.016 15.9208C16.8112 20.1109 19.3767 22.9812 19.3767 22.9812C19.3767 22.9812 12.4339 21.3391 13.0001 14.5575C13.3834 9.97115 16.3713 7.82386 17.7041 7.32733C17.7041 7.32733 25.8969 2.07888 34.7779 8.05906C37.3172 9.77079 39.5124 13.7126 39.7476 16.8442C40.34 24.6624 35.6272 26.3567 35.6272 26.3567" fill="#1E1E1E"/>
<path d="M36.0364 28.2107C36.4919 26.5921 35.8401 24.9926 34.5805 24.6381C33.3208 24.2835 31.9303 25.3082 31.4748 26.9268C31.0192 28.5453 31.6711 30.1448 32.9307 30.4994C34.1904 30.8539 35.5808 29.8293 36.0364 28.2107Z" fill="white"/>
<path d="M16.258 25.6122C16.5779 25.6122 16.8373 25.3528 16.8373 25.0329C16.8373 24.713 16.5779 24.4536 16.258 24.4536C15.9381 24.4536 15.6787 24.713 15.6787 25.0329C15.6787 25.3528 15.9381 25.6122 16.258 25.6122Z" fill="black"/>
<path d="M21.781 25.6122C22.1009 25.6122 22.3602 25.3528 22.3602 25.0329C22.3602 24.713 22.1009 24.4536 21.781 24.4536C21.461 24.4536 21.2017 24.713 21.2017 25.0329C21.2017 25.3528 21.461 25.6122 21.781 25.6122Z" fill="black"/>
<path d="M24.1021 31.0173C25.2111 31.0173 26.1101 30.1183 26.1101 29.0094C26.1101 27.9004 25.2111 27.0015 24.1021 27.0015C22.9932 27.0015 22.0942 27.9004 22.0942 29.0094C22.0942 30.1183 22.9932 31.0173 24.1021 31.0173Z" fill="#C1CB61"/>
<path d="M13.6275 31.0173C14.7365 31.0173 15.6355 30.1183 15.6355 29.0094C15.6355 27.9004 14.7365 27.0015 13.6275 27.0015C12.5186 27.0015 11.6196 27.9004 11.6196 29.0094C11.6196 30.1183 12.5186 31.0173 13.6275 31.0173Z" fill="#C1CB61"/>
<path d="M18.6493 28.9745C18.4185 28.9745 18.1833 28.8874 18.0047 28.7262C17.7259 28.4736 17.6345 28.1034 17.7608 27.7027C17.8697 27.3629 18.0788 27.1974 18.2312 27.1234C18.6101 26.9404 19.0196 27.0842 19.0631 27.0972C19.2156 27.1539 19.294 27.3237 19.2373 27.4762C19.1807 27.6286 19.0108 27.7027 18.8627 27.6504C18.8018 27.6286 18.6188 27.5851 18.4882 27.6504C18.4098 27.6896 18.3575 27.7636 18.3183 27.8812C18.2617 28.0598 18.2878 28.1992 18.3924 28.295C18.4925 28.3865 18.6537 28.417 18.7626 28.3691C18.9063 28.3037 19.0849 28.3691 19.1502 28.5172C19.2155 28.6652 19.1502 28.8395 19.0021 28.9048C18.8932 28.9527 18.7713 28.9788 18.6493 28.9788V28.9745Z" fill="black"/>
<path d="M20.3785 38.0123L24.2114 36.8232C24.2114 36.8232 22.4866 38.6264 19.8472 41.2659C19.8472 41.2659 21.0624 39.4279 20.3785 38.0123Z" fill="#515F06"/>
</g>
<defs>
<clipPath id="clip0_1984_4348">
<rect width="50" height="50" fill="white"/>
</clipPath>
</defs>
</svg>
