<svg width="50" height="50" viewBox="0 0 50 50" fill="none" xmlns="http://www.w3.org/2000/svg">
<g clip-path="url(#clip0_1984_4364)">
<path d="M24.6846 49.2539C38.2155 49.2539 49.1846 38.2849 49.1846 24.7539C49.1846 11.2229 38.2155 0.253906 24.6846 0.253906C11.1536 0.253906 0.18457 11.2229 0.18457 24.7539C0.18457 38.2849 11.1536 49.2539 24.6846 49.2539Z" fill="#C1CB61"/>
<path d="M31.4355 34.127H21.8228V41.8058H31.4355V34.127Z" fill="white"/>
<path d="M38.7397 19.623C38.7397 19.623 36.1133 31.2044 32.3457 33.2297C32.3457 33.2297 32.925 22.4977 34.3928 21.0255C35.8606 19.5577 38.7353 19.623 38.7353 19.623H38.7397Z" fill="#1E1E1E"/>
<path d="M20.9605 11.2167C19.7627 11.1078 18.5737 11.5128 17.6808 12.3099C15.4595 14.296 11.5787 18.473 12.1754 23.0072C13.0595 29.7104 12.5064 30.6076 14.4141 33.761C15.5553 35.6513 18.4038 36.7838 20.2941 37.1409C23.4301 37.7333 31.1612 34.0528 32.3503 33.2296C33.5045 32.4326 41.2139 13.0896 20.9649 11.2167H20.9605Z" fill="white"/>
<path d="M21.1217 35.5211C21.2219 36.7842 21.113 39.8113 18.2122 42.0806C17.7897 42.4116 18.0467 43.0431 18.6042 43.0431H29.1664C29.4974 43.0431 29.7675 42.7949 29.7675 42.4944V35.4819C29.7675 35.177 29.4974 34.9331 29.1664 34.9331H21.7184C21.3656 34.9331 21.0956 35.2032 21.1173 35.5255L21.1217 35.5211Z" fill="white"/>
<path d="M32.5636 32.2759H26.5181V36.6968H32.5636V32.2759Z" fill="white"/>
<path d="M24.3534 35.5211C24.4493 36.7842 24.3447 39.8113 21.5964 42.0806C21.1957 42.4116 21.4396 43.0431 21.9666 43.0431H31.9887C32.3023 43.0431 32.5593 42.7949 32.5593 42.4944V35.4819C32.5593 35.177 32.3023 34.9331 31.9887 34.9331H24.924C24.593 34.9331 24.3317 35.2032 24.3534 35.5255V35.5211Z" fill="white"/>
<path d="M37.092 26.5645C37.5626 24.8926 36.8891 23.2404 35.5877 22.8742C34.2864 22.5079 32.85 23.5662 32.3795 25.238C31.9089 26.9099 32.5824 28.5621 33.8837 28.9283C35.185 29.2946 36.6214 28.2363 37.092 26.5645Z" fill="white"/>
<path d="M12.2536 24.2181C12.2536 24.2181 7.7107 13.6036 13.7432 9.9624C13.7432 9.9624 15.4288 15.5898 14.5794 17.7458C14.5794 17.7458 11.6133 20.2197 12.2536 24.2138V24.2181Z" fill="#1E1E1E"/>
<path d="M17.772 23.857C18.1016 23.857 18.3687 23.5898 18.3687 23.2603C18.3687 22.9307 18.1016 22.6636 17.772 22.6636C17.4424 22.6636 17.1753 22.9307 17.1753 23.2603C17.1753 23.5898 17.4424 23.857 17.772 23.857Z" fill="black"/>
<path d="M23.4737 23.857C23.8032 23.857 24.0704 23.5898 24.0704 23.2603C24.0704 22.9307 23.8032 22.6636 23.4737 22.6636C23.1441 22.6636 22.877 22.9307 22.877 23.2603C22.877 23.5898 23.1441 23.857 23.4737 23.857Z" fill="black"/>
<path d="M27.5566 28.5038C28.704 28.5038 29.6342 27.5737 29.6342 26.4262C29.6342 25.2788 28.704 24.3486 27.5566 24.3486C26.4092 24.3486 25.479 25.2788 25.479 26.4262C25.479 27.5737 26.4092 28.5038 27.5566 28.5038Z" fill="#C1CB61"/>
<path d="M13.5908 28.5038C14.7382 28.5038 15.6684 27.5737 15.6684 26.4262C15.6684 25.2788 14.7382 24.3486 13.5908 24.3486C12.4434 24.3486 11.5132 25.2788 11.5132 26.4262C11.5132 27.5737 12.4434 28.5038 13.5908 28.5038Z" fill="#C1CB61"/>
<path d="M20.5207 27.6548C20.2811 27.6548 20.0416 27.5677 19.8543 27.3978C19.5624 27.1365 19.471 26.7532 19.606 26.3394C19.7192 25.9866 19.9327 25.8211 20.0938 25.7427C20.4815 25.5554 20.9083 25.6991 20.9519 25.7165C21.1087 25.7775 21.1871 25.9517 21.1304 26.1042C21.0738 26.2566 20.8953 26.3394 20.7428 26.2828C20.6775 26.261 20.4902 26.2174 20.3552 26.2828C20.2768 26.322 20.2201 26.4004 20.1809 26.518C20.1243 26.7009 20.1504 26.8446 20.2593 26.9448C20.3639 27.0406 20.5294 27.0711 20.6426 27.0232C20.7951 26.9535 20.9736 27.0232 21.0433 27.1757C21.113 27.3281 21.0433 27.5067 20.8909 27.5764C20.7777 27.6286 20.6513 27.6504 20.525 27.6504L20.5207 27.6548Z" fill="black"/>
<path d="M20.3071 37.1457L24.2663 35.9175C24.2663 35.9175 22.4849 37.7773 19.7583 40.5082C19.7583 40.5082 21.0127 38.6092 20.3071 37.1457Z" fill="#515F06"/>
<path d="M23.4258 13.4168C23.4258 13.4168 21.1565 11.1867 20.7384 14.118C20.3203 17.0493 21.2959 21.5225 18.6434 21.8012C15.9908 22.08 14.8192 21.2437 14.8192 21.2437C14.8192 21.2437 13.3165 22.5983 12.1144 21.1043C10.9123 19.6104 10.6771 3.62983 23.8875 5.30672C23.8875 5.30672 26.6489 5.34156 26.9799 6.16476C27.3109 6.98361 23.4301 13.4168 23.4301 13.4168H23.4258Z" fill="#1E1E1E"/>
<path d="M23.4258 13.4166C23.4258 13.4166 24.6497 11.4609 25.4903 13.4166C26.3309 15.3722 23.9528 21.078 25.4903 21.862C27.0278 22.6416 28.3127 22.4761 29.7675 21.862C29.7675 21.862 30.6647 23.038 33.461 21.862V26.5181L34.7415 22.4892C34.7415 22.4892 40.4212 21.3219 40.0074 17.6066C39.5936 13.8913 35.3252 2.63657 26.9756 6.16893" fill="#1E1E1E"/>
</g>
<defs>
<clipPath id="clip0_1984_4364">
<rect width="50" height="50" fill="white"/>
</clipPath>
</defs>
</svg>
