<svg width="49" height="50" viewBox="0 0 49 50" fill="none" xmlns="http://www.w3.org/2000/svg">
<g clip-path="url(#clip0_2464_5767)">
<path d="M24.5 49.2998C38.031 49.2998 49 38.3308 49 24.7998C49 11.2688 38.031 0.299805 24.5 0.299805C10.969 0.299805 0 11.2688 0 24.7998C0 38.3308 10.969 49.2998 24.5 49.2998Z" fill="#C1CB61"/>
<path d="M34.8683 25.2074C34.8683 25.2074 37.1794 29.0563 34.5455 31.4651C34.5455 31.4651 33.3857 32.3063 34.3373 34.4687C34.1588 34.4772 27.5867 29.5916 34.8683 25.2031V25.2074Z" fill="#1E1E1E"/>
<path d="M36.9543 23.1214C36.9543 23.1214 39.2653 26.9704 36.6314 29.3792C36.6314 29.3792 35.4716 30.2204 36.4232 32.3828C36.2448 32.3912 29.6727 27.5057 36.9543 23.1172V23.1214Z" fill="#1E1E1E"/>
<path d="M13.329 17.7012C13.329 17.7012 9.88366 20.0675 10.7588 24.3328C10.7588 24.3328 11.6425 26.0661 9.58203 27.5403C9.76471 27.6337 18.8349 25.62 13.329 17.7012Z" fill="#1E1E1E"/>
<path d="M12.6972 23.2021C12.6972 23.2021 16.1426 25.5685 15.2674 29.8338C15.2674 29.8338 14.3838 31.5671 16.4442 33.0412C16.2615 33.1347 7.19141 31.121 12.6972 23.2021Z" fill="#1E1E1E"/>
<path d="M38.4866 16.2695C38.4866 16.2695 41.7918 19.3071 39.9438 22.3659C39.9438 22.3659 39.0686 23.5002 40.5895 25.3057C40.4196 25.3652 32.7387 22.5315 38.4866 16.2695Z" fill="#1E1E1E"/>
<path d="M35.0652 21.5625C35.0652 21.5625 33.4169 25.7386 36.4162 27.6843C36.4162 27.6843 37.6949 28.3216 37.1171 30.6114C37.2956 30.5902 42.9713 24.6893 35.0652 21.5625Z" fill="#1E1E1E"/>
<path d="M31.4453 35.0844C31.6535 34.1455 35.923 29.8505 37.6691 27.0891C40.4432 22.7091 39.2197 15.334 39.2197 15.334L33.7989 16.1964L32.3629 30.0629L31.4453 35.0801V35.0844Z" fill="#1E1E1E"/>
<path d="M20.2523 12.2037C19.0756 12.0932 17.9073 12.4925 17.0236 13.2785C14.84 15.2285 11.025 19.3366 11.6113 23.7973C12.4779 30.3907 11.9384 31.2701 13.8119 34.3713C14.9377 36.2321 17.7331 37.3409 19.5896 37.6935C22.6739 38.2755 30.2784 34.656 31.4424 33.8488C32.5767 33.0629 40.1557 14.0474 20.2481 12.2037H20.2523Z" fill="white"/>
<path d="M20.4018 36.1041C20.4995 37.3446 20.3933 40.3227 17.5427 42.5531C17.1264 42.8802 17.3813 43.5004 17.9293 43.5004H28.3122C28.6393 43.5004 28.9027 43.2583 28.9027 42.9609V36.0659C28.9027 35.7685 28.6393 35.5264 28.3122 35.5264H20.9923C20.6482 35.5264 20.3763 35.794 20.4018 36.1084V36.1041Z" fill="white"/>
<path d="M31.6543 32.9102H25.7109V37.2562H31.6543V32.9102Z" fill="white"/>
<path d="M23.5867 36.1041C23.6801 37.3446 23.5782 40.3227 20.872 42.5531C20.4769 42.8802 20.719 43.5004 21.2373 43.5004H31.0892C31.3993 43.5004 31.65 43.2583 31.65 42.9609V36.0659C31.65 35.7685 31.3993 35.5264 31.0892 35.5264H24.1432C23.8161 35.5264 23.5612 35.794 23.5824 36.1084L23.5867 36.1041Z" fill="white"/>
<path d="M11.6985 24.5105C11.6985 24.5105 7.26325 13.9407 13.1939 10.3594C13.1939 10.3594 14.8507 15.8949 14.0138 18.0148C14.0138 18.0148 11.0697 20.5808 11.6985 24.5105Z" fill="#1E1E1E"/>
<path d="M35.1005 25.8576C35.1005 25.8576 39.8884 24.137 39.2851 16.1969C39.043 13.0149 36.8169 9.00879 34.2381 7.27548C25.2147 1.20465 16.8965 6.53203 16.8965 6.53203C15.5413 7.03333 12.508 9.21696 12.1172 13.8731C12.1172 13.8731 15.9279 19.9312 35.1005 25.8576Z" fill="#1E1E1E"/>
<path d="M35.5103 27.7409C35.9731 26.0967 35.312 24.4721 34.0337 24.1123C32.7553 23.7525 31.3439 24.7937 30.8811 26.4379C30.4183 28.0822 31.0795 29.7067 32.3578 30.0665C33.6361 30.4263 35.0475 29.3851 35.5103 27.7409Z" fill="white"/>
<path d="M15.4304 25.101C15.7565 25.101 16.0209 24.8366 16.0209 24.5104C16.0209 24.1843 15.7565 23.9199 15.4304 23.9199C15.1042 23.9199 14.8398 24.1843 14.8398 24.5104C14.8398 24.8366 15.1042 25.101 15.4304 25.101Z" fill="black"/>
<path d="M21.0397 25.101C21.3659 25.101 21.6302 24.8366 21.6302 24.5104C21.6302 24.1843 21.3659 23.9199 21.0397 23.9199C20.7136 23.9199 20.4492 24.1843 20.4492 24.5104C20.4492 24.8366 20.7136 25.101 21.0397 25.101Z" fill="black"/>
<path d="M23.0782 30.5862C24.2045 30.5862 25.1174 29.6732 25.1174 28.547C25.1174 27.4208 24.2045 26.5078 23.0782 26.5078C21.952 26.5078 21.0391 27.4208 21.0391 28.547C21.0391 29.6732 21.952 30.5862 23.0782 30.5862Z" fill="#C1CB61"/>
<path d="M17.8637 28.5174C17.63 28.5174 17.3921 28.4282 17.2094 28.2668C16.9248 28.0119 16.8356 27.6338 16.963 27.2259C17.0735 26.8776 17.2859 26.7161 17.4431 26.6397C17.8254 26.4527 18.2418 26.5972 18.2885 26.6142C18.4414 26.6736 18.5222 26.8436 18.4627 26.9965C18.4032 27.1495 18.2333 27.2259 18.0803 27.1707C18.0166 27.1494 17.8297 27.107 17.698 27.1707C17.6215 27.2089 17.5663 27.2854 17.5281 27.4043C17.4686 27.587 17.4983 27.7272 17.6045 27.8207C17.7065 27.9141 17.8679 27.9439 17.9826 27.8972C18.1313 27.8292 18.3097 27.8972 18.3735 28.0501C18.4414 28.1988 18.3735 28.3772 18.2205 28.4409C18.1058 28.4919 17.9869 28.5132 17.8637 28.5132V28.5174Z" fill="black"/>
<path d="M19.601 37.6971L23.5095 36.4863C23.5095 36.4863 21.7549 38.3004 19.0742 40.981C19.0742 40.981 20.2935 39.133 19.601 37.6971Z" fill="#515F06"/>
<path d="M15.4454 12.6367C15.4454 12.6367 13.317 17.2631 16.5925 19.6549C16.5925 19.6549 18.0029 20.4579 17.2042 23.0153C17.4081 23.0026 24.2054 16.6684 15.4454 12.6367Z" fill="#1E1E1E"/>
<path d="M21.2684 13.6562C21.2684 13.6562 14.7769 17.0804 22.4154 21.3542C22.4154 21.3542 24.0935 22.0424 23.0272 25.0417C23.2311 25.029 30.0284 18.083 21.2684 13.6605V13.6562Z" fill="#1E1E1E"/>
<path d="M14.8295 11.0863C14.8295 11.0863 9.89719 12.348 10.1011 16.3967C10.1011 16.3967 10.3688 17.9983 7.875 18.9881C8.01519 19.1411 17.2128 20.4283 14.8295 11.082V11.0863Z" fill="#1E1E1E"/>
<path d="M24.9103 16.4053C24.9103 16.4053 22.7818 21.0317 26.0573 23.4235C26.0573 23.4235 27.4677 24.2264 26.6691 26.7839C26.873 26.7711 33.6703 20.4369 24.9103 16.4053Z" fill="#1E1E1E"/>
<path d="M17.9136 13.0615C17.9136 13.0615 20.042 17.6879 16.7665 20.0797C16.7665 20.0797 15.3561 20.8827 16.1548 23.4401C15.9509 23.4274 9.15357 17.0932 17.9136 13.0615Z" fill="#1E1E1E"/>
<path d="M23.0152 13.2822C23.0152 13.2822 25.1436 17.9086 21.8681 20.3004C21.8681 20.3004 20.4577 21.1034 21.2564 23.6608C21.0524 23.6481 14.2551 17.3139 23.0152 13.2822Z" fill="#1E1E1E"/>
<path d="M32.5191 18.7334C32.5191 18.7334 34.6475 23.3598 31.372 25.7516C31.372 25.7516 29.9616 26.5545 30.7603 29.112C30.5563 29.0993 23.759 22.765 32.5191 18.7334Z" fill="#1E1E1E"/>
<path d="M14.0152 14.7314C14.0152 14.7314 16.1436 19.3579 12.8681 21.7497C12.8681 21.7497 11.4577 22.5526 12.2564 25.1101C12.0524 25.0973 5.25514 18.7631 14.0152 14.7314Z" fill="#1E1E1E"/>
<path d="M12.3203 30.3136C12.622 30.4878 12.9703 30.594 13.3399 30.594C14.4657 30.594 15.3791 29.6806 15.3791 28.5548C15.3791 27.429 14.4657 26.5156 13.3399 26.5156C12.8131 26.5156 12.3416 26.7153 11.9805 27.0424C12.0399 27.7731 12.1079 29.1538 12.3203 30.3136Z" fill="#C1CB61"/>
</g>
<defs>
<clipPath id="clip0_2464_5767">
<rect width="49" height="50" fill="white"/>
</clipPath>
</defs>
</svg>
