<svg width="49" height="49" viewBox="0 0 49 49" fill="none" xmlns="http://www.w3.org/2000/svg">
<g clip-path="url(#clip0_2463_5697)">
<path d="M24.5 49C38.031 49 49 38.031 49 24.5C49 10.969 38.031 0 24.5 0C10.969 0 0 10.969 0 24.5C0 38.031 10.969 49 24.5 49Z" fill="#C1CB61"/>
<path d="M35.9318 29.333C35.9318 29.333 33.7736 25.4245 34.7635 23.2919C35.7533 21.1592 26.7852 26.9667 26.7852 26.9667C26.7852 26.9667 29.0792 42.8469 34.7635 40.4678C36.3566 39.8008 36.7899 38.6368 36.7899 38.6368C36.7899 38.6368 38.2216 38.4031 39.9167 36.3087C41.6118 34.2143 37.7246 31.7248 35.9318 29.333Z" fill="#1E1E1E"/>
<path d="M21.6622 28.4199C21.6622 28.4199 19.5041 24.5114 20.4939 22.3788C21.4838 20.2461 12.5156 26.0536 12.5156 26.0536C12.5156 26.0536 14.3636 40.1537 20.4939 39.5547C22.4184 39.3678 22.5204 37.7237 22.5204 37.7237C22.5204 37.7237 23.9521 37.49 25.6471 35.3956C27.3422 33.3012 23.455 30.8117 21.6622 28.4199Z" fill="#1E1E1E"/>
<path d="M19.2891 39.4743C19.2891 39.4743 32.4121 41.1821 33.9712 40.6936L35.5134 40.0648L20.4361 37.04L19.2891 39.4743Z" fill="#1E1E1E"/>
<path d="M40.7263 24.8895L40.5012 26.2787C40.1316 29.244 44.7368 31.3511 43.0417 33.4456C41.3466 35.54 39.9149 35.7736 39.9149 35.7736C39.9149 35.7736 39.813 37.4135 37.8885 37.6047C31.7539 38.2037 29.9102 24.1035 29.9102 24.1035C29.9102 24.1035 35.8578 21.614 37.8885 20.4287C38.6149 20.0039 40.5012 16.8262 40.5012 16.8262L40.7263 24.8895Z" fill="#1E1E1E"/>
<path d="M31.3867 34.2529C31.3867 34.2529 40.0703 30.867 40.784 24.4988C41.417 18.8316 40.7585 14.664 38.7235 11.3418C38.7235 11.3418 32.0749 16.3845 32.2746 24.2099C32.4021 29.0955 32.7334 31.5722 31.3867 34.2529Z" fill="#1E1E1E"/>
<path d="M20.1635 36.6578C20.2612 37.8984 20.155 40.8764 17.3044 43.1068C16.8881 43.4339 17.143 44.0542 17.691 44.0542H28.0739C28.401 44.0542 28.6644 43.812 28.6644 43.5146V36.6196C28.6644 36.3222 28.401 36.0801 28.0739 36.0801H20.754C20.4099 36.0801 20.138 36.3477 20.1635 36.6621V36.6578Z" fill="white"/>
<path d="M31.4121 33.4678H25.4688V37.8138H31.4121V33.4678Z" fill="white"/>
<path d="M23.3445 36.6578C23.4379 37.8984 23.336 40.8764 20.6298 43.1068C20.2347 43.4339 20.4769 44.0542 20.9952 44.0542H30.847C31.1571 44.0542 31.4078 43.812 31.4078 43.5146V36.6196C31.4078 36.3222 31.1571 36.0801 30.847 36.0801H23.901C23.5739 36.0801 23.319 36.3477 23.3402 36.6621L23.3445 36.6578Z" fill="white"/>
<path d="M20.0051 12.761C18.8283 12.6506 17.2267 12.4042 16.3473 13.1901C14.1637 15.1401 10.7778 19.8939 11.364 24.3546C12.2307 30.948 11.6911 31.8274 13.5647 34.9287C14.6905 36.7895 17.4858 37.8983 19.3423 38.2509C22.4266 38.8329 30.0311 35.2133 31.1951 34.4061C32.3294 33.6202 39.9084 14.6048 20.0008 12.761H20.0051Z" fill="white"/>
<path d="M15.1921 25.6547C15.5182 25.6547 15.7826 25.3903 15.7826 25.0641C15.7826 24.738 15.5182 24.4736 15.1921 24.4736C14.866 24.4736 14.6016 24.738 14.6016 25.0641C14.6016 25.3903 14.866 25.6547 15.1921 25.6547Z" fill="#010101"/>
<path d="M20.7976 25.6547C21.1237 25.6547 21.3881 25.3903 21.3881 25.0641C21.3881 24.738 21.1237 24.4736 20.7976 24.4736C20.4714 24.4736 20.207 24.738 20.207 25.0641C20.207 25.3903 20.4714 25.6547 20.7976 25.6547Z" fill="#010101"/>
<path d="M22.84 31.1389C23.9662 31.1389 24.8791 30.2259 24.8791 29.0997C24.8791 27.9735 23.9662 27.0605 22.84 27.0605C21.7138 27.0605 20.8008 27.9735 20.8008 29.0997C20.8008 30.2259 21.7138 31.1389 22.84 31.1389Z" fill="#C1CB61"/>
<path d="M17.6176 29.0701C17.3839 29.0701 17.146 28.9809 16.9633 28.8195C16.6787 28.5646 16.5895 28.1865 16.7169 27.7787C16.8274 27.4303 17.0398 27.2689 17.197 27.1924C17.5793 27.0055 17.9957 27.1499 18.0424 27.1669C18.1953 27.2264 18.2761 27.3963 18.2166 27.5492C18.1571 27.7022 17.9872 27.7787 17.8342 27.7234C17.7705 27.7022 17.5836 27.6597 17.4519 27.7234C17.3754 27.7617 17.3202 27.8381 17.282 27.9571C17.2225 28.1398 17.2522 28.28 17.3584 28.3734C17.4604 28.4669 17.6218 28.4966 17.7365 28.4499C17.8852 28.3819 18.0637 28.4499 18.1274 28.6028C18.1953 28.7515 18.1274 28.9299 17.9744 28.9937C17.8597 29.0447 17.7408 29.0659 17.6176 29.0659V29.0701Z" fill="#010101"/>
<path d="M12.0742 30.8292C12.3759 31.0034 12.7072 31.1096 13.0768 31.1096C14.2026 31.1096 15.116 30.1962 15.116 29.0704C15.116 27.9446 14.2026 27.0312 13.0768 27.0312C12.5501 27.0312 12.0955 27.2182 11.7344 27.5453C11.7939 28.276 11.8618 29.6737 12.0742 30.8335V30.8292Z" fill="#C1CB61"/>
<path d="M35.7174 27.8708C36.1801 26.2266 35.519 24.602 34.2407 24.2422C32.9624 23.8824 31.5509 24.9236 31.0881 26.5678C30.6254 28.212 31.2865 29.8366 32.5648 30.1964C33.8431 30.5562 35.2546 29.515 35.7174 27.8708Z" fill="white"/>
<path d="M19.1445 16.8058C19.1445 16.8058 21.9017 12.515 23.9876 19.1551C26.0735 25.7952 24.1235 28.8625 28.4356 32.4354C28.4356 32.4354 26.5918 29.589 28.0915 26.0119C30.1179 21.1731 29.247 15.9604 29.247 15.9604C29.247 15.9604 19.5396 7.39583 19.1488 16.8058H19.1445Z" fill="#1E1E1E"/>
<path d="M19.1469 16.8054C19.1469 16.8054 16.4917 12.9522 14.529 19.2057C12.5663 25.4593 13.7898 26.636 9.72838 30.0007C9.72838 30.0007 11.6486 27.0991 10.1957 23.9851C7.96959 19.21 9.42251 16.1597 9.42676 16.1427C9.42676 16.1427 18.7815 7.94348 19.1469 16.8097V16.8054Z" fill="#1E1E1E"/>
<path d="M12.8125 23.7088C12.5066 24.6732 6.15118 23.0631 10.4462 12.4805C12.7148 6.88974 17.2732 5.91687 17.2732 5.91687C17.2732 5.91687 18.8621 5.56426 19.6905 6.16328C19.6905 6.16328 24.9117 2.04666 32.393 5.88714C40.6772 10.1397 40.5327 16.9752 40.5327 16.9752L32.24 25.8032L30.8636 28.7303C30.8636 28.7303 28.2551 15.9939 28.1744 15.8197C28.0937 15.6455 21.9464 13.9887 21.9464 13.9887C21.9464 13.9887 20.0049 14.0524 19.151 16.8138C19.151 16.8138 17.3667 14.6599 16.0115 14.4942C14.6563 14.3285 13.0717 16.236 13.0717 16.0448C13.0717 15.8537 12.8125 23.7173 12.8125 23.7173V23.7088Z" fill="#1E1E1E"/>
<path d="M19.3719 38.2466L23.2634 37.04C23.2634 37.04 21.5088 38.8711 18.8281 41.5517C18.8281 41.5517 20.0601 39.6825 19.3677 38.2466H19.3719Z" fill="#515F06"/>
</g>
<defs>
<clipPath id="clip0_2463_5697">
<rect width="49" height="49" fill="white"/>
</clipPath>
</defs>
</svg>
