<svg width="133" height="26" viewBox="0 0 133 26" fill="none" xmlns="http://www.w3.org/2000/svg">
<path d="M3.2777 22.3827V1.42577C3.2777 0.539724 2.73785 0.0774387 1.61957 0.0774387C0.501296 0.0774387 0 0.539724 0 1.42577V23.6154C0 24.8097 0.501296 25.3105 1.69669 25.3105H12.3396C13.2265 25.3105 13.6892 24.8097 13.6892 23.8466C13.6892 22.845 13.2265 22.3827 12.3396 22.3827H3.2777Z" fill="black"/>
<path d="M20.6001 1.42577C20.6001 0.539724 20.0603 0.0774387 18.942 0.0774387C17.8237 0.0774387 17.3224 0.539724 17.3224 1.42577V24.1548C17.3224 25.0408 17.8623 25.5031 18.9806 25.5031C20.0988 25.5031 20.6001 25.0408 20.6001 24.1548V1.42577Z" fill="black"/>
<path d="M29.3707 4.50767L41.7874 23.7695C42.4815 24.8867 43.1371 25.5031 44.4867 25.5031C45.7592 25.5031 46.4148 24.9252 46.4148 23.6925V1.42577C46.4148 0.539724 45.8749 0.0774387 44.8338 0.0774387C43.7926 0.0774387 43.2913 0.539724 43.2913 1.42577V20.7262L31.2216 1.73396C30.6432 0.770866 29.9106 0.0774387 28.3681 0.0774387C26.9799 0.0774387 26.2472 0.655294 26.2472 1.88805V24.1548C26.2472 25.0408 26.7871 25.5031 27.8283 25.5031C28.8694 25.5031 29.3707 25.0408 29.3707 24.1548V4.50767Z" fill="black"/>
<path d="M68.9315 23.1532L58.6742 12.2124L68.6616 2.42739C69.0472 2.04215 69.5099 1.46429 69.5099 0.924961C69.5099 0.385629 69.1243 0.0774387 67.9675 0.0774387C66.9263 0.0774387 66.3865 0.30858 65.6152 1.1561L55.358 11.8272V1.42577C55.358 0.539724 54.8181 0.0774387 53.6998 0.0774387C52.5815 0.0774387 52.0802 0.539724 52.0802 1.42577V24.1548C52.0802 25.0408 52.6201 25.5031 53.7384 25.5031C54.8567 25.5031 55.358 25.0408 55.358 24.1548V12.7903L65.5767 24.1933C66.4636 25.272 67.042 25.5031 68.0832 25.5031C69.3557 25.5031 69.7413 25.1949 69.7413 24.6556C69.7413 24.1933 69.4328 23.6925 68.9315 23.1532Z" fill="black"/>
<path d="M81.8384 13.7148L74.7817 1.34872C74.3575 0.501199 73.8562 0.0774387 72.6222 0.0774387C71.504 0.0774387 71.0412 0.424152 71.0412 0.924961C71.0412 1.42577 71.3883 1.92658 71.8125 2.62L80.1417 16.9508V24.1548C80.1417 25.0408 80.6815 25.5031 81.7998 25.5031C82.9181 25.5031 83.4194 25.0408 83.4194 24.1548V16.9123L91.9029 2.58148C92.2499 1.92658 92.597 1.42577 92.597 0.924961C92.597 0.424152 92.1728 0.0774387 91.0931 0.0774387C89.9748 0.0774387 89.4349 0.462676 88.9722 1.34872L81.8384 13.7148Z" fill="black"/>
<path d="M126.335 12.1735C129.805 11.4415 131.463 9.28422 131.463 6.43346C131.463 2.50404 128.301 0 121.977 0C120.435 0 118.584 0.154093 117.62 0.42376C116 0.886046 115.962 1.54095 115.962 2.73518V22.8446C115.962 23.9232 116 24.7708 117.62 25.156C118.661 25.4257 120.435 25.5798 121.977 25.5798C128.995 25.5798 132.389 22.6905 132.389 18.5299C132.389 15.2169 130.306 12.8669 126.335 12.1735ZM121.861 2.81223C126.18 2.81223 127.993 4.43023 127.993 6.8187C127.993 8.55227 127.106 9.9006 125.216 10.5555C124.406 10.8252 123.365 11.0178 122.131 11.0178H119.124V3.04337C120.011 2.88928 120.936 2.81223 121.861 2.81223ZM122.016 22.7675C120.975 22.7675 120.011 22.6905 119.124 22.5364V13.5989H122.208C123.52 13.5989 124.638 13.7915 125.602 14.0997C127.877 14.8316 128.918 16.2955 128.918 18.2602C128.918 20.9184 127.067 22.7675 122.016 22.7675Z" fill="black"/>
<path fill-rule="evenodd" clip-rule="evenodd" d="M103.072 11.3297C103.528 11.7698 103.541 12.4965 103.101 12.9528C100.339 15.8174 95.7769 15.8999 92.9123 13.1372C92.456 12.6971 92.4428 11.9705 92.8829 11.5142C93.323 11.0579 94.0496 11.0447 94.5059 11.4848C96.4579 13.3674 99.5664 13.3111 101.449 11.3591C101.889 10.9028 102.616 10.8897 103.072 11.3297Z" fill="#9FC743"/>
<path fill-rule="evenodd" clip-rule="evenodd" d="M111.737 11.3307C112.193 11.7708 112.206 12.4974 111.766 12.9537C109.003 15.8183 104.441 15.9009 101.577 13.1382C101.121 12.6981 101.107 11.9715 101.547 11.5152C101.988 11.0589 102.714 11.0457 103.17 11.4858C105.122 13.3684 108.231 13.3121 110.114 11.3601C110.554 10.9038 111.28 10.8906 111.737 11.3307Z" fill="#9FC743"/>
</svg>
