<svg width="60" height="60" viewBox="0 0 60 60" fill="none" xmlns="http://www.w3.org/2000/svg">
<g clip-path="url(#clip0_1547_6570)">
<path d="M30 60C46.5685 60 60 46.5685 60 30C60 13.4315 46.5685 0 30 0C13.4315 0 0 13.4315 0 30C0 46.5685 13.4315 60 30 60Z" fill="#E9E9E9"/>
<path d="M38.0092 43.0873C38.2599 41.9513 43.4066 36.7726 45.5132 33.45C48.8572 28.17 47.3799 19.2793 47.3799 19.2793L40.8466 20.3193L39.1132 37.0393L38.0039 43.0926L38.0092 43.0873Z" fill="white"/>
<path d="M24.5094 15.5034C23.0907 15.37 21.6827 15.85 20.616 16.7994C17.9814 19.1514 13.384 24.106 14.088 29.482C15.1334 37.4287 14.4827 38.49 16.744 42.234C18.0987 44.474 21.4747 45.818 23.7147 46.2394C27.432 46.9434 36.6 42.5754 38.008 41.6047C39.3734 40.6554 48.5147 17.7274 24.5094 15.5034Z" fill="white"/>
<path d="M24.6977 44.3198C24.815 45.8131 24.687 49.4024 21.2524 52.0958C20.751 52.4904 21.0604 53.2371 21.7164 53.2371H34.239C34.6337 53.2371 34.9537 52.9438 34.9537 52.5864V44.2718C34.9537 43.9091 34.6337 43.6211 34.239 43.6211H25.4124C24.9964 43.6211 24.671 43.9411 24.703 44.3198H24.6977Z" fill="white"/>
<path d="M38.2603 40.4688H31.0977V45.7061H38.2603V40.4688Z" fill="white"/>
<path d="M28.529 44.3198C28.641 45.8131 28.5184 49.4024 25.2597 52.0958C24.785 52.4904 25.073 53.2371 25.7024 53.2371H37.585C37.9584 53.2371 38.2624 52.9438 38.2624 52.5864V44.2718C38.2624 43.9091 37.9584 43.6211 37.585 43.6211H29.2064C28.8117 43.6211 28.5024 43.9411 28.5344 44.3198H28.529Z" fill="white"/>
<path d="M14.2376 30.1816C14.2376 30.1816 8.85088 17.5949 16.0082 13.2803C16.0082 13.2803 18.0082 19.9523 17.0002 22.5123C17.0002 22.5123 13.4856 25.4456 14.2429 30.1816H14.2376Z" fill="white"/>
<path d="M34.9521 31.845C22.1414 30.181 19.6294 19.1836 19.6294 19.1836C19.3788 24.3143 22.5201 27.829 22.5201 27.829C22.5201 27.829 14.0188 25.8183 14.7121 17.5143C15.1814 11.8983 18.8401 9.26897 20.4721 8.66097C20.4721 8.66097 30.5041 2.23431 41.3788 9.55697C44.4881 11.653 47.1761 16.4796 47.4641 20.3143C48.1894 29.8876 42.4188 31.9623 42.4188 31.9623" fill="white"/>
<path d="M42.9197 34.2327C43.4775 32.2508 42.6794 30.2922 41.1369 29.8581C39.5945 29.4239 37.8919 30.6787 37.3341 32.6606C36.7762 34.6425 37.5744 36.6011 39.1168 37.0352C40.6593 37.4693 42.3619 36.2146 42.9197 34.2327Z" fill="white"/>
<path d="M18.7015 31.0495C19.0933 31.0495 19.4109 30.7319 19.4109 30.3402C19.4109 29.9484 19.0933 29.6309 18.7015 29.6309C18.3098 29.6309 17.9922 29.9484 17.9922 30.3402C17.9922 30.7319 18.3098 31.0495 18.7015 31.0495Z" fill="white"/>
<path d="M25.4632 31.0495C25.855 31.0495 26.1726 30.7319 26.1726 30.3402C26.1726 29.9484 25.855 29.6309 25.4632 29.6309C25.0715 29.6309 24.7539 29.9484 24.7539 30.3402C24.7539 30.7319 25.0715 31.0495 25.4632 31.0495Z" fill="white"/>
<path d="M21.6289 35.1676C21.3462 35.1676 21.0582 35.0609 20.8395 34.8636C20.4982 34.5542 20.3862 34.1009 20.5409 33.6102C20.6742 33.1942 20.9302 32.9916 21.1169 32.9009C21.5809 32.6769 22.0822 32.8529 22.1356 32.8689C22.3222 32.9382 22.4182 33.1462 22.3489 33.3329C22.2796 33.5196 22.0715 33.6102 21.8902 33.5462C21.8155 33.5196 21.5915 33.4662 21.4315 33.5462C21.3355 33.5942 21.2715 33.6849 21.2235 33.8289C21.1542 34.0476 21.1862 34.2182 21.3142 34.3356C21.4369 34.4476 21.6342 34.4849 21.7676 34.4262C21.9436 34.3462 22.1622 34.4262 22.2422 34.6076C22.3222 34.7889 22.2422 35.0022 22.0609 35.0822C21.9275 35.1409 21.7782 35.1729 21.6289 35.1729V35.1676Z" fill="white"/>
<path d="M23.7483 46.2343L28.4417 44.7783C28.4417 44.7783 26.3297 46.9863 23.0977 50.2183C23.0977 50.2183 24.5857 47.9677 23.7483 46.2343Z" fill="white"/>
<path d="M29.2897 33C28.8687 33 28.5136 32.8583 28.2245 32.575C27.9347 32.2917 27.8073 31.9583 27.8424 31.575C27.895 30.875 28.0705 30.2667 28.3687 29.75C28.6669 29.2333 29.1406 28.7 29.7897 28.15C30.509 27.55 31.057 27.029 31.4338 26.587C31.8114 26.1457 32.0001 25.6417 32.0001 25.075C32.0001 24.3917 31.7591 23.825 31.277 23.375C30.7942 22.925 30.123 22.7 29.2634 22.7C28.702 22.7 28.2241 22.8123 27.8298 23.037C27.4347 23.2623 27.1144 23.5417 26.8688 23.875C26.6232 24.2083 26.3207 24.4333 25.9614 24.55C25.6014 24.6667 25.2548 24.6583 24.9215 24.525C24.518 24.3583 24.2419 24.0833 24.0931 23.7C23.9436 23.3167 23.9741 22.9583 24.1847 22.625C24.6934 21.875 25.3776 21.25 26.2372 20.75C27.0968 20.25 28.1056 20 29.2634 20C31.1054 20 32.5222 20.4877 33.5137 21.463C34.5046 22.4377 35 23.6083 35 24.975C35 25.8083 34.8116 26.521 34.4348 27.113C34.0572 27.7043 33.465 28.375 32.658 29.125C32.0615 29.6583 31.6405 30.0917 31.3949 30.425C31.1493 30.7583 30.9826 31.1417 30.8949 31.575C30.8247 31.9917 30.6405 32.3333 30.3423 32.6C30.0441 32.8667 29.6932 33 29.2897 33ZM29.2634 39C28.6845 39 28.1891 38.8043 27.7771 38.413C27.3645 38.021 27.1582 37.55 27.1582 37C27.1582 36.45 27.3645 35.979 27.7771 35.587C28.1891 35.1957 28.6845 35 29.2634 35C29.8423 35 30.3381 35.1957 30.7507 35.587C31.1626 35.979 31.3686 36.45 31.3686 37C31.3686 37.55 31.1626 38.021 30.7507 38.413C30.3381 38.8043 29.8423 39 29.2634 39Z" fill="#E9E9E9"/>
</g>
<defs>
<clipPath id="clip0_1547_6570">
<rect width="60" height="60" fill="white"/>
</clipPath>
</defs>
</svg>
