<svg width="17" height="17" viewBox="0 0 17 17" fill="none" xmlns="http://www.w3.org/2000/svg">
<path d="M12.1 4.25C12.1 6.23914 10.4891 7.85 8.5 7.85C6.51086 7.85 4.9 6.23914 4.9 4.25C4.9 2.26086 6.51086 0.65 8.5 0.65C10.4891 0.65 12.1 2.26086 12.1 4.25ZM0.65 14.875C0.65 14.4072 0.879193 13.9493 1.37004 13.4963C1.8653 13.0392 2.58236 12.6323 3.42789 12.2935C5.11999 11.6157 7.16282 11.275 8.5 11.275C9.83718 11.275 11.88 11.6157 13.5721 12.2935C14.4176 12.6323 15.1347 13.0392 15.63 13.4963C16.1208 13.9493 16.35 14.4072 16.35 14.875V15.9375C16.35 16.1629 16.1629 16.35 15.9375 16.35H1.0625C0.83711 16.35 0.65 16.1629 0.65 15.9375V14.875Z" stroke="black" stroke-width="1.3"/>
</svg>
