<svg width="17" height="17" viewBox="0 0 17 17" fill="none" xmlns="http://www.w3.org/2000/svg">
<path fill-rule="evenodd" clip-rule="evenodd" d="M10.5867 11.515C8.26774 13.3724 4.87324 13.2262 2.72355 11.0765C0.417019 8.76996 0.417019 5.03033 2.72355 2.7238C5.03009 0.417263 8.76972 0.417263 11.0763 2.7238C13.2259 4.87348 13.3721 8.26798 11.5148 10.587L16.026 15.0981C16.2823 15.3544 16.2823 15.7699 16.026 16.0262C15.7697 16.2825 15.3542 16.2825 15.0979 16.0262L10.5867 11.515ZM3.65163 10.1484C1.85766 8.35445 1.85766 5.44585 3.65163 3.65187C5.4456 1.8579 8.3542 1.8579 10.1482 3.65187C11.9408 5.44453 11.9421 8.35018 10.1521 10.1445C10.1508 10.1458 10.1495 10.1471 10.1482 10.1484C10.1468 10.1497 10.1455 10.151 10.1442 10.1524C8.34994 11.9424 5.44429 11.9411 3.65163 10.1484Z" fill="black"/>
</svg>
