<svg width="1em" height="1em" viewBox="0 0 13 12" fill="none" xmlns="http://www.w3.org/2000/svg">
<path d="M1.00205 5.51921C0.995488 5.44654 1.00471 5.37335 1.02914 5.30429C1.05356 5.23523 1.09266 5.1718 1.14394 5.11803C1.19522 5.06426 1.25758 5.02133 1.32704 4.99195C1.39651 4.96257 1.47157 4.94739 1.54746 4.94737H2.59309C2.73832 4.94737 2.87761 5.00282 2.9803 5.10152C3.08299 5.20023 3.14069 5.3341 3.14069 5.47368V10.4737C3.14069 10.6133 3.08299 10.7471 2.9803 10.8458C2.87761 10.9445 2.73832 11 2.59309 11H2.00005C1.86299 11 1.73091 10.9507 1.62988 10.8617C1.52885 10.7726 1.46622 10.6504 1.45437 10.5192L1.00205 5.51921ZM4.78347 5.30921C4.78347 5.08921 4.92585 4.89237 5.13257 4.79868C5.58406 4.59395 6.35316 4.18263 6.70006 3.62658C7.14717 2.90974 7.2315 1.61474 7.24519 1.31816C7.24711 1.27658 7.24601 1.235 7.25176 1.19395C7.32596 0.679998 8.35791 1.28026 8.75354 1.915C8.96848 2.25921 8.99586 2.71158 8.9734 3.065C8.94904 3.44289 8.83377 3.80789 8.72069 4.17053L8.47975 4.94342H11.4524C11.537 4.94342 11.6204 4.96225 11.6962 4.99845C11.7719 5.03466 11.8379 5.08724 11.889 5.15208C11.9401 5.21691 11.9748 5.29224 11.9905 5.37215C12.0062 5.45205 12.0024 5.53437 11.9794 5.61263L10.5091 10.6168C10.4767 10.7272 10.4076 10.8244 10.3124 10.8935C10.2172 10.9627 10.1011 11.0001 9.9818 11H5.33107C5.18584 11 5.04656 10.9445 4.94386 10.8458C4.84117 10.7471 4.78347 10.6133 4.78347 10.4737V5.30921Z" fill="#9FC743" stroke="#9FC743" stroke-width="0.5" stroke-linecap="round" stroke-linejoin="round"/>
</svg>
