<svg width="49" height="49" viewBox="0 0 49 49" fill="none" xmlns="http://www.w3.org/2000/svg">
<g clip-path="url(#clip0_1984_4306)">
<path d="M24.5 49C38.031 49 49 38.031 49 24.5C49 10.969 38.031 0 24.5 0C10.969 0 0 10.969 0 24.5C0 38.031 10.969 49 24.5 49Z" fill="#7AB06C"/>
<path d="M25.5889 26.3643C26.3773 40.0799 14.7 41.6871 10.828 38.0589C6.95585 34.4351 10.1398 31.1205 11.625 29.1387C13.1103 27.157 13.0362 24.4478 13.0362 24.4478C13.0362 24.4478 20.7064 19.9442 25.5889 26.3643Z" fill="#1E1E1E"/>
<path d="M20.2835 11.1196C19.0988 11.0108 17.9228 11.4115 17.0386 12.2042C14.8434 14.1642 11.0062 18.2976 11.5942 22.7795C12.4653 29.4086 11.9209 30.2928 13.8068 33.4157C14.9349 35.2843 17.753 36.4036 19.6171 36.7564C22.7183 37.3444 30.3623 33.7032 31.5383 32.8887C32.6794 32.1004 40.3017 12.9751 20.2792 11.1196H20.2835Z" fill="white"/>
<path d="M14.9699 7.69186C12.2738 9.05515 6.89037 15.7104 11.4942 21.5425C11.4942 21.5425 12.8139 15.0092 18.0711 13.1668C21.0459 12.1258 22.7185 10.0744 21.12 8.09258C19.8525 6.52893 16.7688 6.78591 14.9743 7.69186H14.9699Z" fill="#1E1E1E"/>
<path d="M14.1514 24.6261C14.4786 24.6261 14.7438 24.3609 14.7438 24.0338C14.7438 23.7066 14.4786 23.4414 14.1514 23.4414C13.8243 23.4414 13.5591 23.7066 13.5591 24.0338C13.5591 24.3609 13.8243 24.6261 14.1514 24.6261Z" fill="black"/>
<path d="M19.7916 24.6261C20.1187 24.6261 20.3839 24.3609 20.3839 24.0338C20.3839 23.7066 20.1187 23.4414 19.7916 23.4414C19.4644 23.4414 19.1992 23.7066 19.1992 24.0338C19.1992 24.3609 19.4644 24.6261 19.7916 24.6261Z" fill="black"/>
<path d="M21.843 30.1449C22.976 30.1449 23.8944 29.2265 23.8944 28.0935C23.8944 26.9605 22.976 26.042 21.843 26.042C20.71 26.042 19.7915 26.9605 19.7915 28.0935C19.7915 29.2265 20.71 30.1449 21.843 30.1449Z" fill="#7AB06C"/>
<path d="M20.3666 28.0626C18.7028 28.0626 17.3525 26.5207 17.3525 24.626C17.3525 22.7314 18.7028 21.1938 20.3666 21.1938C22.0304 21.1938 23.3806 22.7357 23.3806 24.626C23.3806 26.5163 22.0304 28.0626 20.3666 28.0626ZM20.3666 21.7906C19.0338 21.7906 17.9492 23.0624 17.9492 24.626C17.9492 26.1897 19.0338 27.4615 20.3666 27.4615C21.6994 27.4615 22.7839 26.1897 22.7839 24.626C22.7839 23.0624 21.6994 21.7906 20.3666 21.7906Z" fill="black"/>
<mask id="mask0_1984_4306" style="mask-type:alpha" maskUnits="userSpaceOnUse" x="11" y="25" width="5" height="6">
<path d="M12.571 30.5158C12.1668 29.4336 11.9922 27.1366 11.9238 25.9224L14.3535 25.9014L15.0792 29.5396C14.3902 30.153 12.8425 31.2429 12.571 30.5158Z" fill="#D9D9D9"/>
</mask>
<g mask="url(#mask0_1984_4306)">
<path d="M12.4509 30.0051C13.5209 29.9958 14.3808 29.1209 14.3716 28.0509C14.3623 26.9809 13.4874 26.121 12.4174 26.1302C11.3474 26.1395 10.4875 27.0144 10.4967 28.0844C10.506 29.1544 11.3809 30.0143 12.4509 30.0051Z" fill="#7AB06C"/>
</g>
<path d="M13.1278 28.0626C11.464 28.0626 10.1138 26.5207 10.1138 24.626C10.1138 22.7314 11.464 21.1938 13.1278 21.1938C14.7916 21.1938 16.1419 22.7357 16.1419 24.626C16.1419 26.5163 14.7916 28.0626 13.1278 28.0626ZM13.1278 21.7906C11.795 21.7906 10.7105 23.0624 10.7105 24.626C10.7105 26.1897 11.795 27.4615 13.1278 27.4615C14.4606 27.4615 15.5451 26.1897 15.5451 24.626C15.5451 23.0624 14.4606 21.7906 13.1278 21.7906Z" fill="black"/>
<path d="M17.6484 24.9268H15.928C15.7625 24.9268 15.6274 24.7917 15.6274 24.6262C15.6274 24.4607 15.7625 24.3257 15.928 24.3257H17.6484C17.8139 24.3257 17.949 24.4607 17.949 24.6262C17.949 24.7917 17.8139 24.9268 17.6484 24.9268Z" fill="black"/>
<path d="M16.5947 29.0558C16.3595 29.0558 16.1199 28.9687 15.937 28.8032C15.6495 28.5462 15.558 28.163 15.6887 27.7579C15.7976 27.4094 16.011 27.2439 16.1722 27.1655C16.5555 26.9782 16.9736 27.122 17.0215 27.1394C17.1783 27.196 17.2567 27.3702 17.1957 27.5227C17.1347 27.6751 16.9649 27.7535 16.8124 27.6969C16.7515 27.6751 16.5598 27.6316 16.4291 27.6969C16.3507 27.7361 16.2941 27.8102 16.2593 27.9321C16.2027 28.115 16.2288 28.2544 16.3377 28.3546C16.4422 28.4461 16.6034 28.4809 16.7166 28.433C16.8647 28.3633 17.0433 28.433 17.1086 28.5854C17.1739 28.7379 17.1086 28.9121 16.9562 28.9774C16.8429 29.0297 16.721 29.0515 16.5947 29.0515V29.0558Z" fill="black"/>
<path d="M20.4405 35.154C20.5407 36.3996 20.4318 39.3963 17.5658 41.6394C17.1477 41.966 17.4047 42.5932 17.9535 42.5932H28.3981C28.7248 42.5932 28.9948 42.3493 28.9948 42.0488V35.1148C28.9948 34.8142 28.7291 34.5703 28.3981 34.5703H21.0372C20.6888 34.5703 20.4187 34.836 20.4449 35.154H20.4405Z" fill="white"/>
<path d="M42.2402 24.6263C43.6078 40.5677 32.7799 43.7211 28.2109 40.3281C23.3458 36.5257 27.0088 33.1415 28.5245 30.6849C30.0403 28.2327 29.6788 25.1011 29.6788 25.1011C20.9023 24.8223 18.2977 19.3343 17.4832 14.7349C17.0346 12.2043 18.0276 6.83825 22.7186 5.29639C25.7631 4.29461 29.9227 5.00456 32.2006 6.22847C32.2006 6.22847 40.903 9.05959 42.2402 24.6263Z" fill="#1E1E1E"/>
<path d="M32.3888 26.6977C32.8541 25.0444 32.1896 23.4109 30.9045 23.0492C29.6193 22.6875 28.2003 23.7345 27.735 25.3878C27.2696 27.0411 27.9342 28.6746 29.2193 29.0363C30.5044 29.398 31.9234 28.351 32.3888 26.6977Z" fill="white"/>
<path d="M19.6216 36.7523L23.5372 35.5371C23.5372 35.5371 21.7732 37.3795 19.0771 40.0756C19.0771 40.0756 20.3141 38.1984 19.6216 36.7523Z" fill="#515F06"/>
</g>
<defs>
<clipPath id="clip0_1984_4306">
<rect width="49" height="49" fill="white"/>
</clipPath>
</defs>
</svg>
