<svg width="50" height="49" viewBox="0 0 50 49" fill="none" xmlns="http://www.w3.org/2000/svg">
<g clip-path="url(#clip0_1984_4327)">
<path d="M24.5225 49C38.0534 49 49.0225 38.031 49.0225 24.5C49.0225 10.969 38.0534 0 24.5225 0C10.9915 0 0.0224609 10.969 0.0224609 24.5C0.0224609 38.031 10.9915 49 24.5225 49Z" fill="#7AB06C"/>
<path d="M19.9498 42.0781C19.9498 42.0781 31.7925 39.8001 33.5173 38.8898C35.2421 37.9795 33.8919 35.3226 36.1916 33.6501C38.2257 32.1692 36.2221 26.9774 39.2884 21.9206C41.4749 18.3142 39.2187 14.6468 39.1839 14.3985C39.1839 14.3985 14.4487 13.7931 12.1446 16.2496C9.84051 18.7062 12.4103 23.6584 11.2691 25.5226C8.84309 29.4992 11.8136 31.3634 10.1498 32.9793C10.1498 32.9793 8.23332 36.2373 9.33527 38.3628C10.4372 40.4883 11.4826 44.6043 19.9541 42.0737" fill="#1E1E1E"/>
<path d="M22.8978 9.78256C21.6695 9.66931 20.4456 10.0831 19.5266 10.9063C17.2443 12.9447 13.259 17.2349 13.8731 21.891C14.779 28.7771 14.2128 29.6962 16.1728 32.9367C17.3445 34.8793 20.2714 36.0378 22.2096 36.4081C25.4284 37.0178 33.3729 33.2372 34.5925 32.3922C35.7772 31.5734 43.6956 11.7077 22.8978 9.78256Z" fill="white"/>
<path d="M23.0635 34.7401C23.168 36.0337 23.0548 39.1436 20.0756 41.4738C19.64 41.8136 19.9057 42.4625 20.4763 42.4625H31.3216C31.6613 42.4625 31.9401 42.2099 31.9401 41.8963V34.6966C31.9401 34.383 31.6657 34.1304 31.3216 34.1304H23.6733C23.3117 34.1304 23.033 34.4091 23.0591 34.7358L23.0635 34.7401Z" fill="white"/>
<path d="M34.1701 7.00362C26.7874 1.14105 19.1347 6.359 19.1347 6.359C17.9587 6.79456 15.3279 8.68487 14.9926 12.7268C14.496 18.7026 20.6069 20.1443 20.6069 20.1443C20.6069 20.1443 18.3507 17.6181 18.5293 13.929C18.5293 13.929 19.2915 21.1156 28.5035 22.3134C28.5035 22.3134 24.8492 20.4013 24.5704 15.4447C24.5704 15.4447 25.5722 21.0503 32.6718 22.6618L33.0071 25.6628C33.0071 25.6628 46.1435 16.5031 34.1788 7.00362H34.1701Z" fill="#1E1E1E"/>
<path d="M17.3748 6.63795C14.5742 8.05351 8.98162 14.9658 13.764 21.0244C13.764 21.0244 15.136 14.2384 20.5935 12.322C23.6816 11.2374 25.4195 9.10755 23.76 7.05173C22.4446 5.42711 19.2433 5.6928 17.3748 6.63795Z" fill="#1E1E1E"/>
<path d="M39.4698 25.0534C39.9527 23.3376 39.2611 21.6418 37.9251 21.2657C36.589 20.8897 35.1144 21.9758 34.6315 23.6916C34.1485 25.4074 34.8401 27.1032 36.1762 27.4792C37.5123 27.8553 38.9868 26.7692 39.4698 25.0534Z" fill="white"/>
<path d="M32.9243 31.1899H26.5957V35.8155H32.9243V31.1899Z" fill="white"/>
<path d="M24.3354 34.5917C24.4356 35.9114 24.3267 39.0822 21.4477 41.4604C21.0295 41.8045 21.2865 42.4709 21.8353 42.4709H32.3279C32.6589 42.4709 32.9246 42.2139 32.9246 41.8959V34.5525C32.9246 34.2345 32.6589 33.9775 32.3279 33.9775H24.9278C24.5793 33.9775 24.3049 34.2606 24.3311 34.596L24.3354 34.5917Z" fill="white"/>
<path d="M16.5648 23.8508C16.904 23.8508 17.179 23.5759 17.179 23.2367C17.179 22.8975 16.904 22.6226 16.5648 22.6226C16.2256 22.6226 15.9507 22.8975 15.9507 23.2367C15.9507 23.5759 16.2256 23.8508 16.5648 23.8508Z" fill="black"/>
<path d="M22.4232 23.8508C22.7624 23.8508 23.0374 23.5759 23.0374 23.2367C23.0374 22.8975 22.7624 22.6226 22.4232 22.6226C22.084 22.6226 21.8091 22.8975 21.8091 23.2367C21.8091 23.5759 22.084 23.8508 22.4232 23.8508Z" fill="black"/>
<path d="M19.0999 26.6952C18.856 26.6952 18.6078 26.6038 18.4161 26.4339C18.1199 26.1682 18.0241 25.7718 18.1591 25.345C18.2724 24.9835 18.4945 24.8093 18.66 24.7309C19.0607 24.5349 19.4963 24.6873 19.5442 24.7047C19.7054 24.7657 19.7881 24.9443 19.7271 25.1054C19.6662 25.2666 19.4876 25.345 19.3308 25.2884C19.2654 25.2666 19.0694 25.223 18.9344 25.2884C18.8517 25.3276 18.795 25.406 18.7558 25.5323C18.6949 25.7196 18.721 25.8677 18.8342 25.9678C18.9431 26.0637 19.1086 26.0985 19.2262 26.0462C19.383 25.9766 19.566 26.0462 19.6357 26.203C19.7054 26.3598 19.6357 26.5428 19.4789 26.6125C19.3613 26.6647 19.235 26.6909 19.1043 26.6909L19.0999 26.6952Z" fill="black"/>
<path d="M22.2445 36.4472L26.3126 35.1841C26.3126 35.1841 24.4832 37.0962 21.6826 39.8968C21.6826 39.8968 22.9675 37.9455 22.2488 36.4472H22.2445Z" fill="#515F06"/>
<path d="M33.3032 38.7597L35.2283 32.7708L36.5437 27.5703C36.5437 27.5703 35.0977 29.0904 34.9235 30.0922C34.7492 31.094 33.6821 31.8213 33.3032 32.4268C32.9243 33.0322 31.4129 33.7334 31.9573 35.6107C32.5018 37.4879 32.9243 38.947 32.9243 38.947L33.3032 38.751V38.7597Z" fill="#1E1E1E"/>
<path d="M24.5527 28.5156C25.729 28.5156 26.6826 27.562 26.6826 26.3857C26.6826 25.2094 25.729 24.2559 24.5527 24.2559C23.3764 24.2559 22.4229 25.2094 22.4229 26.3857C22.4229 27.562 23.3764 28.5156 24.5527 28.5156Z" fill="#7AB06C"/>
<mask id="mask0_1984_4327" style="mask-type:alpha" maskUnits="userSpaceOnUse" x="14" y="23" width="4" height="7">
<path d="M14.6845 29.122C14.3948 27.3573 14.2044 25.0171 14.1455 24.0675L14.9728 23.8858L16.9003 24.7173L17.354 27.1072C16.5849 28.5141 14.9743 30.8867 14.6845 29.122Z" fill="#D9D9D9"/>
</mask>
<g mask="url(#mask0_1984_4327)">
<path d="M14.8098 28.5134C15.9861 28.5162 16.942 27.565 16.9448 26.3887C16.9476 25.2124 15.9964 24.2565 14.8201 24.2537C13.6438 24.2508 12.6879 25.2021 12.6851 26.3784C12.6822 27.5547 13.6335 28.5106 14.8098 28.5134Z" fill="#7AB06C"/>
</g>
</g>
<defs>
<clipPath id="clip0_1984_4327">
<rect width="50" height="49" fill="white"/>
</clipPath>
</defs>
</svg>
