<svg width="49" height="50" viewBox="0 0 49 50" fill="none" xmlns="http://www.w3.org/2000/svg">
<g clip-path="url(#clip0_2463_5677)">
<path d="M24.5 49.4697C38.031 49.4697 49 38.5007 49 24.9697C49 11.4388 38.031 0.469727 24.5 0.469727C10.969 0.469727 0 11.4388 0 24.9697C0 38.5007 10.969 49.4697 24.5 49.4697Z" fill="#7AB06C"/>
<path d="M19.9139 12.8565C18.7292 12.7476 17.5532 13.1483 16.669 13.941C14.4738 15.901 10.6366 20.0344 11.2246 24.5163C12.0957 31.1454 11.5512 32.0296 13.4372 35.1526C14.5653 37.0211 17.3833 38.1405 19.2475 38.4933C22.3487 39.0813 27.4447 36.7641 28.6163 35.9496C29.7575 35.1613 39.9277 14.7119 19.9096 12.8565H19.9139Z" fill="white"/>
<path d="M14.6042 9.42477C11.9081 10.7881 6.52464 17.4434 11.1285 23.2754C11.1285 23.2754 12.4482 16.7421 17.7054 14.8997C20.6802 13.8587 22.3527 11.8073 20.7542 9.82549C19.4868 8.26184 16.403 8.51882 14.6086 9.42477H14.6042Z" fill="#1E1E1E"/>
<path d="M13.7877 26.3634C14.1148 26.3634 14.38 26.0982 14.38 25.7711C14.38 25.4439 14.1148 25.1787 13.7877 25.1787C13.4605 25.1787 13.1953 25.4439 13.1953 25.7711C13.1953 26.0982 13.4605 26.3634 13.7877 26.3634Z" fill="#010101"/>
<path d="M19.4244 26.3634C19.7515 26.3634 20.0167 26.0982 20.0167 25.7711C20.0167 25.4439 19.7515 25.1787 19.4244 25.1787C19.0972 25.1787 18.832 25.4439 18.832 25.7711C18.832 26.0982 19.0972 26.3634 19.4244 26.3634Z" fill="#010101"/>
<path d="M16.2299 30.7883C15.9947 30.7883 15.7552 30.7012 15.5722 30.5356C15.2848 30.2787 15.1933 29.8954 15.324 29.4903C15.4328 29.1419 15.6463 28.9764 15.8074 28.898C16.1907 28.7107 16.6088 28.8544 16.6568 28.8718C16.8136 28.9284 16.892 29.1027 16.831 29.2551C16.77 29.4076 16.6001 29.486 16.4477 29.4293C16.3867 29.4076 16.1951 29.364 16.0644 29.4293C15.986 29.4685 15.9294 29.5426 15.8945 29.6645C15.8379 29.8475 15.864 29.9868 15.9729 30.087C16.0775 30.1785 16.2386 30.2133 16.3519 30.1654C16.5 30.0957 16.6785 30.1654 16.7439 30.3179C16.8092 30.4703 16.7439 30.6445 16.5914 30.7099C16.4782 30.7621 16.3562 30.7839 16.2299 30.7839V30.7883Z" fill="#010101"/>
<path d="M20.0743 36.8864C20.1745 38.1321 20.0656 41.1287 17.1996 43.3718C16.7815 43.6985 17.0385 44.3257 17.5873 44.3257H28.0319C28.3586 44.3257 28.6286 44.0818 28.6286 43.7812V36.8472C28.6286 36.5466 28.3629 36.3027 28.0319 36.3027H20.671C20.3226 36.3027 20.0525 36.5684 20.0787 36.8864H20.0743Z" fill="white"/>
<path d="M20.9819 14.8298C20.9819 14.8298 18.7127 12.5998 18.2945 15.5311C17.8764 18.4624 18.839 22.8136 16.1995 23.2143C13.7909 23.5845 12.3753 22.6568 12.3753 22.6568C12.3753 22.6568 10.8727 24.0114 9.67055 22.5174C8.46841 21.0234 8.23321 5.04291 21.4436 6.7198C21.4436 6.7198 24.205 6.75465 24.5361 7.57785C24.8671 8.39669 20.9863 14.8298 20.9863 14.8298H20.9819Z" fill="#1E1E1E"/>
<path d="M25.9893 14.8298C25.9893 14.8298 23.72 12.5998 23.3019 15.5311C22.8837 18.4624 23.8115 22.6263 21.2069 23.2143C18.3888 23.8502 17.3827 22.6568 17.3827 22.6568C17.3827 22.6568 15.88 24.0113 14.6779 22.5174C13.4757 21.0234 12.8137 4.542 27.0433 6.52813C27.0433 6.52813 29.0338 6.7372 30.6018 7.29906C31.2508 7.52991 25.9936 14.8298 25.9936 14.8298H25.9893Z" fill="#1E1E1E"/>
<path d="M28.1123 15.5317C27.6941 18.463 28.6045 22.5529 26.0173 23.2149C23.4301 23.877 22.1931 22.6574 22.1931 22.6574C22.1931 22.6574 20.6904 24.012 19.4883 22.518C19.4883 22.518 20.0066 4.39891 29.5453 7.57847L28.1123 15.5317Z" fill="#1E1E1E"/>
<path d="M28.6225 34.1943H25.9961V38.3234H28.6225V34.1943Z" fill="white"/>
<path d="M11.2022 21.93C11.2022 21.93 11.1238 23.2758 11.4984 26.7733C11.4984 26.7733 10.6709 24.4605 9.81281 21.477C9.71699 21.146 9.51663 13.7589 13.7851 9.62988L11.2022 21.93Z" fill="#1E1E1E"/>
<path d="M14.153 29.8308C14.153 28.6983 13.234 27.7793 12.1016 27.7793C11.9317 27.7793 11.7662 27.8054 11.6094 27.8446C11.6573 28.4283 11.7052 30.5059 12.0841 31.8822C12.0885 31.8822 12.0972 31.8822 12.1016 31.8822C13.234 31.8822 14.153 30.9632 14.153 29.8308Z" fill="#7AB06C"/>
<path d="M29.1322 35.0963C29.1322 35.0963 37.4252 31.5291 38.7667 25.0959C40.6352 16.1409 36.8372 8.03522 28.5703 6.8418C28.5703 6.8418 29.8334 16.7725 30.0425 24.7998C30.1732 29.8086 30.5129 32.3479 29.1322 35.0963Z" fill="#1E1E1E"/>
<path d="M32.9845 27.9609C33.4498 26.3076 32.7853 24.6741 31.5002 24.3124C30.215 23.9507 28.796 24.9977 28.3307 26.651C27.8653 28.3043 28.5299 29.9378 29.815 30.2995C31.1001 30.6612 32.5192 29.6142 32.9845 27.9609Z" fill="white"/>
<path d="M26.6734 22.6617C27.1699 22.8446 28.4417 25.7236 27.2396 27.7795C27.2396 27.7795 29.7919 25.7149 32.2136 22.8141C32.4358 22.5484 37.4142 7.53484 25.2578 8.05316L26.6734 22.6617Z" fill="#1E1E1E"/>
<path d="M21.237 30.523C21.3415 32.8358 21.2283 38.3935 18.236 42.5574C17.8005 43.1628 18.0662 44.3258 18.6411 44.3258H29.5431C29.8871 44.3258 30.1659 43.8728 30.1659 43.3153V30.449C30.1659 29.8915 29.8871 29.4385 29.5431 29.4385H21.8555C21.494 29.4385 21.2109 29.935 21.237 30.523Z" fill="white"/>
<path d="M19.2515 38.4896L23.1671 37.2744C23.1671 37.2744 21.4031 39.1168 18.707 41.8129C18.707 41.8129 19.944 39.9357 19.2515 38.4896Z" fill="#515F06"/>
<path d="M21.4772 31.8822C22.6102 31.8822 23.5287 30.9638 23.5287 29.8308C23.5287 28.6978 22.6102 27.7793 21.4772 27.7793C20.3443 27.7793 19.4258 28.6978 19.4258 29.8308C19.4258 30.9638 20.3443 31.8822 21.4772 31.8822Z" fill="#7AB06C"/>
</g>
<defs>
<clipPath id="clip0_2463_5677">
<rect width="49" height="50" fill="white"/>
</clipPath>
</defs>
</svg>
