<svg width="49" height="49" viewBox="0 0 49 49" fill="none" xmlns="http://www.w3.org/2000/svg">
<g clip-path="url(#clip0_2463_5749)">
<path d="M24.5 49C38.031 49 49 38.031 49 24.5C49 10.969 38.031 0 24.5 0C10.969 0 0 10.969 0 24.5C0 38.031 10.969 49 24.5 49Z" fill="#7AB06C"/>
<path d="M33.2718 36.9742C35.6051 36.9742 37.4966 35.0826 37.4966 32.7493C37.4966 30.416 35.6051 28.5244 33.2718 28.5244C30.9384 28.5244 29.0469 30.416 29.0469 32.7493C29.0469 35.0826 30.9384 36.9742 33.2718 36.9742Z" fill="#1E1E1E"/>
<path d="M20.9624 11.7551C19.7907 11.6462 18.6278 12.0425 17.7523 12.8265C15.5789 14.7647 11.7852 18.8503 12.3689 23.2842C13.2313 29.8393 12.6955 30.7148 14.5597 33.7985C15.6791 35.6496 18.4579 36.7516 20.3047 37.1C23.371 37.6793 30.9279 34.0773 32.0908 33.2759C34.1641 31.8516 40.754 13.5844 20.958 11.7507L20.9624 11.7551Z" fill="white"/>
<path d="M21.1202 35.5192C21.2204 36.7518 21.1115 39.7136 18.276 41.9306C17.8622 42.2529 18.1148 42.8714 18.6593 42.8714H28.9863C29.313 42.8714 29.5743 42.6318 29.5743 42.3313V35.4756C29.5743 35.1795 29.313 34.9355 28.9863 34.9355H21.7082C21.3641 34.9355 21.0984 35.2012 21.1202 35.5148V35.5192Z" fill="white"/>
<path d="M15.7027 8.76331C13.0371 10.1092 7.71028 16.6904 12.2662 22.4572C12.2662 22.4572 13.5729 15.9979 18.769 14.1729C21.709 13.1406 23.3641 11.111 21.7831 9.15531C20.533 7.60909 17.4841 7.86171 15.7071 8.75896L15.7027 8.76331Z" fill="#1E1E1E"/>
<path d="M30.5081 32.1387H24.4844V36.5421H30.5081V32.1387Z" fill="white"/>
<path d="M22.3267 35.3751C22.4225 36.6339 22.318 39.6523 19.5783 41.9128C19.1776 42.2438 19.4215 42.8754 19.9485 42.8754H29.9402C30.2538 42.8754 30.5108 42.6315 30.5108 42.3266V35.3359C30.5108 35.031 30.2581 34.7871 29.9402 34.7871H22.8972C22.5662 34.7871 22.3049 35.0572 22.331 35.3751H22.3267Z" fill="white"/>
<path d="M14.9313 25.1487C15.2536 25.1487 15.5149 24.8874 15.5149 24.5651C15.5149 24.2428 15.2536 23.9814 14.9313 23.9814C14.609 23.9814 14.3477 24.2428 14.3477 24.5651C14.3477 24.8874 14.609 25.1487 14.9313 25.1487Z" fill="black"/>
<path d="M20.5055 25.1487C20.8279 25.1487 21.0892 24.8874 21.0892 24.5651C21.0892 24.2428 20.8279 23.9814 20.5055 23.9814C20.1832 23.9814 19.9219 24.2428 19.9219 24.5651C19.9219 24.8874 20.1832 25.1487 20.5055 25.1487Z" fill="black"/>
<path d="M22.5375 29.5955C23.6585 29.5955 24.5672 28.6868 24.5672 27.5658C24.5672 26.4449 23.6585 25.5361 22.5375 25.5361C21.4165 25.5361 20.5078 26.4449 20.5078 27.5658C20.5078 28.6868 21.4165 29.5955 22.5375 29.5955Z" fill="#7AB06C"/>
<path d="M17.3502 27.8576C17.1194 27.8576 16.8798 27.7705 16.6969 27.605C16.4138 27.3524 16.3223 26.9734 16.453 26.5684C16.5619 26.2243 16.7709 26.0588 16.9277 25.9847C17.3067 25.8018 17.7204 25.9455 17.7684 25.9586C17.9208 26.0152 17.9992 26.1851 17.9426 26.3375C17.886 26.49 17.7161 26.564 17.5636 26.5117C17.5027 26.49 17.3154 26.4464 17.1847 26.5117C17.1063 26.5509 17.054 26.625 17.0148 26.7426C16.9582 26.9212 16.9844 27.0605 17.0889 27.1564C17.1891 27.2478 17.3502 27.2827 17.4635 27.2304C17.6116 27.1607 17.7858 27.2304 17.8511 27.3828C17.9164 27.5309 17.8511 27.7052 17.6987 27.7705C17.5854 27.8184 17.4635 27.8445 17.3415 27.8445L17.3502 27.8576Z" fill="black"/>
<path d="M20.4033 37.1218L24.2144 35.9414C24.2144 35.9414 22.42 37.762 19.75 40.4276C19.75 40.4276 21.0915 38.5504 20.4033 37.1218Z" fill="#515F06"/>
<path d="M30.5078 34.1512C30.5078 34.1512 32.0366 32.5484 34.0315 28.685C34.8198 27.1606 34.7545 25.0307 34.3538 22.6656L31.1045 7.18164C31.1045 7.18164 38.1823 10.2828 39.3322 18.8763C40.0508 24.2424 38.0952 30.8846 30.5122 34.1512H30.5078Z" fill="#1E1E1E"/>
<path d="M36.7415 26.2986C37.2017 24.6638 36.5441 23.0485 35.2729 22.6907C34.0017 22.3329 32.5982 23.3681 32.138 25.0029C31.6779 26.6377 32.3354 28.2529 33.6066 28.6108C34.8779 28.9686 36.2814 27.9334 36.7415 26.2986Z" fill="white"/>
<path d="M31.7124 7.52151C29.674 6.22791 24.6216 5.21307 21.0936 6.45004C16.9558 7.90044 16.4549 12.2212 16.8687 14.5862C17.6265 18.8808 23.3715 24.4516 30.924 24.5648C30.924 24.5648 31.6427 25.0657 31.1462 26.8776L34.3519 22.6614L37.392 21.211C37.392 21.211 39.4914 15.4835 36.2509 11.5765C34.6263 9.61653 33.8292 8.85866 31.7168 7.51715L31.7124 7.52151Z" fill="#1E1E1E"/>
<path d="M33.6172 33.5462C34.0832 34.0079 35.5685 34.8442 37.5633 34.1125C40.5164 33.0279 39.8543 29.8005 39.8543 29.8005C39.8543 29.8005 39.1487 31.4338 37.3543 32.1612C37.3543 32.1612 40.6079 30.2099 39.1444 25.5625C39.1444 25.5625 39.0399 27.7272 36.7445 28.9511L33.6172 33.5419V33.5462Z" fill="#1E1E1E"/>
<path d="M13.2621 25.5361C13.0443 25.5361 12.8483 25.5753 12.6523 25.6407C12.7003 26.5379 12.8571 28.4544 13.0531 29.5737C13.1358 29.5824 13.1794 29.5955 13.2621 29.5955C14.3815 29.5955 15.2918 28.6852 15.2918 27.5658C15.2918 26.4464 14.3815 25.5361 13.2621 25.5361Z" fill="#7AB06C"/>
</g>
<defs>
<clipPath id="clip0_2463_5749">
<rect width="49" height="49" fill="white"/>
</clipPath>
</defs>
</svg>
